<?xml version="1.0" encoding="us-ascii" standalone="no"?><svg xmlns="http://www.w3.org/2000/svg" xmlns:xlink="http://www.w3.org/1999/xlink" contentStyleType="text/css" height="900px" preserveAspectRatio="none" style="width:1623px;height:900px;background:#FFFFFF;" version="1.1" viewBox="0 0 1623 900" width="1623px" zoomAndPan="magnify"><defs/><g><text fill="#000000" font-family="sans-serif" font-size="14" font-weight="bold" lengthAdjust="spacing" textLength="166" x="729.5" y="28.5352">Benutzerkonto anlegen</text><rect fill="none" height="698.6523" style="stroke:#000000;stroke-width:1.5;" width="1606" x="10" y="149.5977"/><rect fill="none" height="623.0762" style="stroke:#000000;stroke-width:1.5;" width="1586" x="20" y="173.9082"/><rect fill="none" height="547.5" style="stroke:#000000;stroke-width:1.5;" width="1566" x="30" y="198.2188"/><rect fill="none" height="296.0605" style="stroke:#000000;stroke-width:1.5;" width="1546" x="40" y="398.3926"/><line style="stroke:#181818;stroke-width:0.5;stroke-dasharray:5.0,5.0;" x1="77" x2="77" y1="73.9766" y2="865.25"/><line style="stroke:#181818;stroke-width:0.5;stroke-dasharray:5.0,5.0;" x1="607.5" x2="607.5" y1="73.9766" y2="865.25"/><line style="stroke:#181818;stroke-width:0.5;stroke-dasharray:5.0,5.0;" x1="1022.5" x2="1022.5" y1="73.9766" y2="865.25"/><line style="stroke:#181818;stroke-width:0.5;stroke-dasharray:5.0,5.0;" x1="1145.5" x2="1145.5" y1="73.9766" y2="865.25"/><line style="stroke:#181818;stroke-width:0.5;stroke-dasharray:5.0,5.0;" x1="1407" x2="1407" y1="73.9766" y2="865.25"/><line style="stroke:#181818;stroke-width:0.5;stroke-dasharray:5.0,5.0;" x1="1513" x2="1513" y1="73.9766" y2="865.25"/><rect fill="#E2E2F0" height="30.4883" rx="2.5" ry="2.5" style="stroke:#181818;stroke-width:0.5;" width="54" x="50" y="42.4883"/><text fill="#000000" font-family="sans-serif" font-size="14" lengthAdjust="spacing" textLength="40" x="57" y="63.0234">Client</text><rect fill="#E2E2F0" height="30.4883" rx="2.5" ry="2.5" style="stroke:#181818;stroke-width:0.5;" width="54" x="50" y="864.25"/><text fill="#000000" font-family="sans-serif" font-size="14" lengthAdjust="spacing" textLength="40" x="57" y="884.7852">Client</text><rect fill="#E2E2F0" height="30.4883" rx="2.5" ry="2.5" style="stroke:#181818;stroke-width:0.5;" width="55" x="580.5" y="42.4883"/><text fill="#000000" font-family="sans-serif" font-size="14" lengthAdjust="spacing" textLength="41" x="587.5" y="63.0234">Nginx</text><rect fill="#E2E2F0" height="30.4883" rx="2.5" ry="2.5" style="stroke:#181818;stroke-width:0.5;" width="55" x="580.5" y="864.25"/><text fill="#000000" font-family="sans-serif" font-size="14" lengthAdjust="spacing" textLength="41" x="587.5" y="884.7852">Nginx</text><rect fill="#E2E2F0" height="30.4883" rx="2.5" ry="2.5" style="stroke:#181818;stroke-width:0.5;" width="109" x="968.5" y="42.4883"/><text fill="#000000" font-family="sans-serif" font-size="14" lengthAdjust="spacing" textLength="95" x="975.5" y="63.0234">Fastify-Server</text><rect fill="#E2E2F0" height="30.4883" rx="2.5" ry="2.5" style="stroke:#181818;stroke-width:0.5;" width="109" x="968.5" y="864.25"/><text fill="#000000" font-family="sans-serif" font-size="14" lengthAdjust="spacing" textLength="95" x="975.5" y="884.7852">Fastify-Server</text><rect fill="#E2E2F0" height="30.4883" rx="2.5" ry="2.5" style="stroke:#181818;stroke-width:0.5;" width="116" x="1087.5" y="42.4883"/><text fill="#000000" font-family="sans-serif" font-size="14" lengthAdjust="spacing" textLength="102" x="1094.5" y="63.0234">MetaDB-Server</text><rect fill="#E2E2F0" height="30.4883" rx="2.5" ry="2.5" style="stroke:#181818;stroke-width:0.5;" width="116" x="1087.5" y="864.25"/><text fill="#000000" font-family="sans-serif" font-size="14" lengthAdjust="spacing" textLength="102" x="1094.5" y="884.7852">MetaDB-Server</text><rect fill="#E2E2F0" height="30.4883" rx="2.5" ry="2.5" style="stroke:#181818;stroke-width:0.5;" width="65" x="1375" y="42.4883"/><text fill="#000000" font-family="sans-serif" font-size="14" lengthAdjust="spacing" textLength="51" x="1382" y="63.0234">MetaDB</text><rect fill="#E2E2F0" height="30.4883" rx="2.5" ry="2.5" style="stroke:#181818;stroke-width:0.5;" width="65" x="1375" y="864.25"/><text fill="#000000" font-family="sans-serif" font-size="14" lengthAdjust="spacing" textLength="51" x="1382" y="884.7852">MetaDB</text><rect fill="#E2E2F0" height="30.4883" rx="2.5" ry="2.5" style="stroke:#181818;stroke-width:0.5;" width="126" x="1450" y="42.4883"/><text fill="#000000" font-family="sans-serif" font-size="14" lengthAdjust="spacing" textLength="112" x="1457" y="63.0234">Message-Broker</text><rect fill="#E2E2F0" height="30.4883" rx="2.5" ry="2.5" style="stroke:#181818;stroke-width:0.5;" width="126" x="1450" y="864.25"/><text fill="#000000" font-family="sans-serif" font-size="14" lengthAdjust="spacing" textLength="112" x="1457" y="884.7852">Message-Broker</text><polygon fill="#181818" points="596,101.2871,606,105.2871,596,109.2871,600,105.2871" style="stroke:#181818;stroke-width:1.0;"/><line style="stroke:#181818;stroke-width:1.0;" x1="77" x2="602" y1="105.2871" y2="105.2871"/><text fill="#000000" font-family="sans-serif" font-size="13" lengthAdjust="spacing" textLength="507" x="84" y="100.5449">Benutzerdaten (username, email, password) an /checkAndCreateUser des Servers</text><polygon fill="#181818" points="1011,130.5977,1021,134.5977,1011,138.5977,1015,134.5977" style="stroke:#181818;stroke-width:1.0;"/><line style="stroke:#181818;stroke-width:1.0;" x1="608" x2="1017" y1="134.5977" y2="134.5977"/><text fill="#000000" font-family="sans-serif" font-size="13" lengthAdjust="spacing" textLength="206" x="615" y="129.8555">Weiterleitung an einen der Server</text><path d="M10,149.5977 L72,149.5977 L72,156.9082 L62,166.9082 L10,166.9082 L10,149.5977 " fill="#EEEEEE" style="stroke:#000000;stroke-width:1.5;"/><rect fill="none" height="698.6523" style="stroke:#000000;stroke-width:1.5;" width="1606" x="10" y="149.5977"/><text fill="#000000" font-family="sans-serif" font-size="13" font-weight="bold" lengthAdjust="spacing" textLength="17" x="25" y="163.166">alt</text><text fill="#000000" font-family="sans-serif" font-size="11" font-weight="bold" lengthAdjust="spacing" textLength="141" x="87" y="162.2324">[Benutzername ist g&#252;ltig]</text><path d="M20,173.9082 L82,173.9082 L82,181.2188 L72,191.2188 L20,191.2188 L20,173.9082 " fill="#EEEEEE" style="stroke:#000000;stroke-width:1.5;"/><rect fill="none" height="623.0762" style="stroke:#000000;stroke-width:1.5;" width="1586" x="20" y="173.9082"/><text fill="#000000" font-family="sans-serif" font-size="13" font-weight="bold" lengthAdjust="spacing" textLength="17" x="35" y="187.4766">alt</text><text fill="#000000" font-family="sans-serif" font-size="11" font-weight="bold" lengthAdjust="spacing" textLength="101" x="97" y="186.543">[E-Mail ist g&#252;ltig]</text><path d="M30,198.2188 L92,198.2188 L92,205.5293 L82,215.5293 L30,215.5293 L30,198.2188 " fill="#EEEEEE" style="stroke:#000000;stroke-width:1.5;"/><rect fill="none" height="547.5" style="stroke:#000000;stroke-width:1.5;" width="1566" x="30" y="198.2188"/><text fill="#000000" font-family="sans-serif" font-size="13" font-weight="bold" lengthAdjust="spacing" textLength="17" x="45" y="211.7871">alt</text><text fill="#000000" font-family="sans-serif" font-size="11" font-weight="bold" lengthAdjust="spacing" textLength="113" x="107" y="210.8535">[Passwort ist g&#252;ltig]</text><polygon fill="#181818" points="619,232.8398,609,236.8398,619,240.8398,615,236.8398" style="stroke:#181818;stroke-width:1.0;"/><line style="stroke:#181818;stroke-width:1.0;" x1="613" x2="1022" y1="236.8398" y2="236.8398"/><text fill="#000000" font-family="sans-serif" font-size="13" lengthAdjust="spacing" textLength="391" x="625" y="232.0977">&#220;berpr&#252;fung auf bereits verwendeten Benutzername und Email</text><polygon fill="#181818" points="1133.5,262.1504,1143.5,266.1504,1133.5,270.1504,1137.5,266.1504" style="stroke:#181818;stroke-width:1.0;"/><line style="stroke:#181818;stroke-width:1.0;" x1="608" x2="1139.5" y1="266.1504" y2="266.1504"/><text fill="#000000" font-family="sans-serif" font-size="13" lengthAdjust="spacing" textLength="238" x="615" y="261.4082">Abfrage auf Benutzername und E-Mail</text><polygon fill="#181818" points="1395.5,291.4609,1405.5,295.4609,1395.5,299.4609,1399.5,295.4609" style="stroke:#181818;stroke-width:1.0;"/><line style="stroke:#181818;stroke-width:1.0;" x1="1145.5" x2="1401.5" y1="295.4609" y2="295.4609"/><text fill="#000000" font-family="sans-serif" font-size="13" lengthAdjust="spacing" textLength="238" x="1152.5" y="290.7188">Abfrage auf Benutzername und E-Mail</text><polygon fill="#181818" points="1156.5,320.7715,1146.5,324.7715,1156.5,328.7715,1152.5,324.7715" style="stroke:#181818;stroke-width:1.0;"/><line style="stroke:#181818;stroke-width:1.0;" x1="1150.5" x2="1406.5" y1="324.7715" y2="324.7715"/><text fill="#000000" font-family="sans-serif" font-size="13" lengthAdjust="spacing" textLength="131" x="1162.5" y="320.0293">Ergebnis der Abfrage</text><polygon fill="#181818" points="619,350.082,609,354.082,619,358.082,615,354.082" style="stroke:#181818;stroke-width:1.0;"/><line style="stroke:#181818;stroke-width:1.0;stroke-dasharray:2.0,2.0;" x1="613" x2="1144.5" y1="354.082" y2="354.082"/><text fill="#000000" font-family="sans-serif" font-size="13" lengthAdjust="spacing" textLength="157" x="625" y="349.3398">R&#252;ckgabe der Ergebnisse</text><polygon fill="#181818" points="1011,379.3926,1021,383.3926,1011,387.3926,1015,383.3926" style="stroke:#181818;stroke-width:1.0;"/><line style="stroke:#181818;stroke-width:1.0;" x1="608" x2="1017" y1="383.3926" y2="383.3926"/><text fill="#000000" font-family="sans-serif" font-size="13" lengthAdjust="spacing" textLength="157" x="615" y="378.6504">R&#252;ckgabe der Ergebnisse</text><path d="M40,398.3926 L102,398.3926 L102,405.7031 L92,415.7031 L40,415.7031 L40,398.3926 " fill="#EEEEEE" style="stroke:#000000;stroke-width:1.5;"/><rect fill="none" height="296.0605" style="stroke:#000000;stroke-width:1.5;" width="1546" x="40" y="398.3926"/><text fill="#000000" font-family="sans-serif" font-size="13" font-weight="bold" lengthAdjust="spacing" textLength="17" x="55" y="411.9609">alt</text><text fill="#000000" font-family="sans-serif" font-size="11" font-weight="bold" lengthAdjust="spacing" textLength="238" x="117" y="411.0273">[Benutzername oder E-Mail existiert nicht]</text><polygon fill="#181818" points="1501,433.0137,1511,437.0137,1501,441.0137,1505,437.0137" style="stroke:#181818;stroke-width:1.0;"/><line style="stroke:#181818;stroke-width:1.0;" x1="1023" x2="1507" y1="437.0137" y2="437.0137"/><text fill="#000000" font-family="sans-serif" font-size="13" lengthAdjust="spacing" textLength="381" x="1030" y="432.2715">Benutzerkonto erstellen (username, email, hashed password)</text><polygon fill="#181818" points="1156.5,462.3242,1146.5,466.3242,1156.5,470.3242,1152.5,466.3242" style="stroke:#181818;stroke-width:1.0;"/><line style="stroke:#181818;stroke-width:1.0;" x1="1150.5" x2="1512" y1="466.3242" y2="466.3242"/><text fill="#000000" font-family="sans-serif" font-size="13" lengthAdjust="spacing" textLength="265" x="1162.5" y="461.582">Weiterleitung zur Erstellung des Benutzers</text><polygon fill="#181818" points="1395.5,491.6348,1405.5,495.6348,1395.5,499.6348,1399.5,495.6348" style="stroke:#181818;stroke-width:1.0;"/><line style="stroke:#181818;stroke-width:1.0;" x1="1145.5" x2="1401.5" y1="495.6348" y2="495.6348"/><text fill="#000000" font-family="sans-serif" font-size="13" lengthAdjust="spacing" textLength="187" x="1152.5" y="490.8926">Erstellen des neuen Benutzers</text><polygon fill="#181818" points="1156.5,520.9453,1146.5,524.9453,1156.5,528.9453,1152.5,524.9453" style="stroke:#181818;stroke-width:1.0;"/><line style="stroke:#181818;stroke-width:1.0;stroke-dasharray:2.0,2.0;" x1="1150.5" x2="1406.5" y1="524.9453" y2="524.9453"/><text fill="#000000" font-family="sans-serif" font-size="13" lengthAdjust="spacing" textLength="202" x="1162.5" y="520.2031">Best&#228;tigung der Kontoerstellung</text><polygon fill="#181818" points="1501,550.2559,1511,554.2559,1501,558.2559,1505,554.2559" style="stroke:#181818;stroke-width:1.0;"/><line style="stroke:#181818;stroke-width:1.0;stroke-dasharray:2.0,2.0;" x1="1145.5" x2="1507" y1="554.2559" y2="554.2559"/><text fill="#000000" font-family="sans-serif" font-size="13" lengthAdjust="spacing" textLength="202" x="1152.5" y="549.5137">Best&#228;tigung der Kontoerstellung</text><polygon fill="#181818" points="1034,579.5664,1024,583.5664,1034,587.5664,1030,583.5664" style="stroke:#181818;stroke-width:1.0;"/><line style="stroke:#181818;stroke-width:1.0;stroke-dasharray:2.0,2.0;" x1="1028" x2="1512" y1="583.5664" y2="583.5664"/><text fill="#000000" font-family="sans-serif" font-size="13" lengthAdjust="spacing" textLength="202" x="1040" y="578.8242">Best&#228;tigung der Kontoerstellung</text><polygon fill="#181818" points="88,608.877,78,612.877,88,616.877,84,612.877" style="stroke:#181818;stroke-width:1.0;"/><line style="stroke:#181818;stroke-width:1.0;" x1="82" x2="1022" y1="612.877" y2="612.877"/><text fill="#000000" font-family="sans-serif" font-size="13" lengthAdjust="spacing" textLength="179" x="94" y="608.1348">Erfolgreiche Kontoerstellung</text><line style="stroke:#000000;stroke-width:1.0;stroke-dasharray:2.0,2.0;" x1="40" x2="1586" y1="621.877" y2="621.877"/><text fill="#000000" font-family="sans-serif" font-size="11" font-weight="bold" lengthAdjust="spacing" textLength="248" x="45" y="632.5117">[Benutzername oder E-Mail existiert bereits]</text><polygon fill="#181818" points="1011,653.1426,1021,657.1426,1011,661.1426,1015,657.1426" style="stroke:#181818;stroke-width:1.0;"/><line style="stroke:#181818;stroke-width:1.0;" x1="608" x2="1017" y1="657.1426" y2="657.1426"/><text fill="#000000" font-family="sans-serif" font-size="13" lengthAdjust="spacing" textLength="96" x="615" y="652.4004">Fehlerr&#252;ckgabe</text><polygon fill="#181818" points="88,682.4531,78,686.4531,88,690.4531,84,686.4531" style="stroke:#181818;stroke-width:1.0;"/><line style="stroke:#181818;stroke-width:1.0;" x1="82" x2="1022" y1="686.4531" y2="686.4531"/><text fill="#000000" font-family="sans-serif" font-size="13" lengthAdjust="spacing" textLength="96" x="94" y="681.7109">Fehlerr&#252;ckgabe</text><line style="stroke:#000000;stroke-width:1.0;stroke-dasharray:2.0,2.0;" x1="30" x2="1596" y1="702.4531" y2="702.4531"/><text fill="#000000" font-family="sans-serif" font-size="11" font-weight="bold" lengthAdjust="spacing" textLength="109" x="35" y="713.0879">[Passwort ung&#252;ltig]</text><polygon fill="#181818" points="88,733.7188,78,737.7188,88,741.7188,84,737.7188" style="stroke:#181818;stroke-width:1.0;"/><line style="stroke:#181818;stroke-width:1.0;" x1="82" x2="1022" y1="737.7188" y2="737.7188"/><text fill="#000000" font-family="sans-serif" font-size="13" lengthAdjust="spacing" textLength="96" x="94" y="732.9766">Fehlerr&#252;ckgabe</text><line style="stroke:#000000;stroke-width:1.0;stroke-dasharray:2.0,2.0;" x1="20" x2="1606" y1="753.7188" y2="753.7188"/><text fill="#000000" font-family="sans-serif" font-size="11" font-weight="bold" lengthAdjust="spacing" textLength="97" x="25" y="764.3535">[E-Mail ung&#252;ltig]</text><polygon fill="#181818" points="88,784.9844,78,788.9844,88,792.9844,84,788.9844" style="stroke:#181818;stroke-width:1.0;"/><line style="stroke:#181818;stroke-width:1.0;" x1="82" x2="1022" y1="788.9844" y2="788.9844"/><text fill="#000000" font-family="sans-serif" font-size="13" lengthAdjust="spacing" textLength="96" x="94" y="784.2422">Fehlerr&#252;ckgabe</text><line style="stroke:#000000;stroke-width:1.0;stroke-dasharray:2.0,2.0;" x1="10" x2="1616" y1="804.9844" y2="804.9844"/><text fill="#000000" font-family="sans-serif" font-size="11" font-weight="bold" lengthAdjust="spacing" textLength="137" x="15" y="815.6191">[Benutzername ung&#252;ltig]</text><polygon fill="#181818" points="88,836.25,78,840.25,88,844.25,84,840.25" style="stroke:#181818;stroke-width:1.0;"/><line style="stroke:#181818;stroke-width:1.0;" x1="82" x2="1022" y1="840.25" y2="840.25"/><text fill="#000000" font-family="sans-serif" font-size="13" lengthAdjust="spacing" textLength="142" x="94" y="835.5078">Fehler: Fehlerr&#252;ckgabe</text><!--SRC=[dPIzRjim4CTtFSKXKml4wEwXG9mwIv6WQ11qfgKJHPYX39BArxDqx6DuqulrI4go65go4mq29TxzxdyVf1LM8gnGDVODzRPMjWQc979KMRPZsefSx9YoS74j1Ifx0Sn0MCRRTroe5x_hL_7c3JDMbA-BUzHFgBrLMCPcjsZPZzNOAloPjXqPlTysXd5Sh7IzxLXXcML1FIo-1wNB8Vk2MLJmfJ6e5Nl4Iy179kGbx9WnpxKklb9bu5jUORwzKiMrHh9_86CeiC_7P9xfuE774lwWiAWblHl57G65eZ05-NLvPKpQGOIB3C9OuErUMi4peCSPh1Utf2RPwhT_1P7sg85xGh1HsktV3UgTRlUb5zQKGDyaqm3PFQCgq9KZqjMe0jQkA15vI7dShILSRKfDBV3abEApYJ1ZxmFjivnKprfpt2XXVEaxw8o0Gw5-j_jyoza6lMUFCNYy27suIQ_8BMbzxQr3h_65cYcGcgf4Njd8CMvfcEtbkuDCysXHogD3NJ5JON6OxGGUa6aPutb-QrnkFepxT2UXrs0Iv5I7ruDEvw-m6StT5CKtA5QsGcFRVpJtGOc6dwuAEAWxeISgumT9VR56_J_9c6bdkA9SOSfQSZgKTEdCQa1fy9mvwavu4ZgPtXki96hTp_0PMkSyw3B98gd3RKM9pDvLf-WzsLExT5FcUJp7IWiPqwP8AT7H_WC0]--></g></svg>