<?xml version="1.0" encoding="us-ascii" standalone="no"?><svg xmlns="http://www.w3.org/2000/svg" xmlns:xlink="http://www.w3.org/1999/xlink" contentStyleType="text/css" height="695px" preserveAspectRatio="none" style="width:1353px;height:695px;background:#FFFFFF;" version="1.1" viewBox="0 0 1353 695" width="1353px" zoomAndPan="magnify"><defs/><g><text fill="#000000" font-family="sans-serif" font-size="14" font-weight="bold" lengthAdjust="spacing" textLength="166" x="594.5" y="28.5352">Benutzerkonto anlegen</text><rect fill="none" height="493.4785" style="stroke:#000000;stroke-width:1.5;" width="1336" x="10" y="149.5977"/><rect fill="none" height="417.9023" style="stroke:#000000;stroke-width:1.5;" width="1316" x="20" y="173.9082"/><rect fill="none" height="342.3262" style="stroke:#000000;stroke-width:1.5;" width="1296" x="30" y="198.2188"/><rect fill="none" height="208.1289" style="stroke:#000000;stroke-width:1.5;" width="1276" x="40" y="281.1504"/><line style="stroke:#181818;stroke-width:0.5;stroke-dasharray:5.0,5.0;" x1="77" x2="77" y1="73.9766" y2="660.0762"/><line style="stroke:#181818;stroke-width:0.5;stroke-dasharray:5.0,5.0;" x1="607.5" x2="607.5" y1="73.9766" y2="660.0762"/><line style="stroke:#181818;stroke-width:0.5;stroke-dasharray:5.0,5.0;" x1="699.5" x2="699.5" y1="73.9766" y2="660.0762"/><line style="stroke:#181818;stroke-width:0.5;stroke-dasharray:5.0,5.0;" x1="838" x2="838" y1="73.9766" y2="660.0762"/><line style="stroke:#181818;stroke-width:0.5;stroke-dasharray:5.0,5.0;" x1="1099.5" x2="1099.5" y1="73.9766" y2="660.0762"/><line style="stroke:#181818;stroke-width:0.5;stroke-dasharray:5.0,5.0;" x1="1243" x2="1243" y1="73.9766" y2="660.0762"/><rect fill="#E2E2F0" height="30.4883" rx="2.5" ry="2.5" style="stroke:#181818;stroke-width:0.5;" width="54" x="50" y="42.4883"/><text fill="#000000" font-family="sans-serif" font-size="14" lengthAdjust="spacing" textLength="40" x="57" y="63.0234">Client</text><rect fill="#E2E2F0" height="30.4883" rx="2.5" ry="2.5" style="stroke:#181818;stroke-width:0.5;" width="54" x="50" y="659.0762"/><text fill="#000000" font-family="sans-serif" font-size="14" lengthAdjust="spacing" textLength="40" x="57" y="679.6113">Client</text><rect fill="#E2E2F0" height="30.4883" rx="2.5" ry="2.5" style="stroke:#181818;stroke-width:0.5;" width="55" x="580.5" y="42.4883"/><text fill="#000000" font-family="sans-serif" font-size="14" lengthAdjust="spacing" textLength="41" x="587.5" y="63.0234">Nginx</text><rect fill="#E2E2F0" height="30.4883" rx="2.5" ry="2.5" style="stroke:#181818;stroke-width:0.5;" width="55" x="580.5" y="659.0762"/><text fill="#000000" font-family="sans-serif" font-size="14" lengthAdjust="spacing" textLength="41" x="587.5" y="679.6113">Nginx</text><rect fill="#E2E2F0" height="30.4883" rx="2.5" ry="2.5" style="stroke:#181818;stroke-width:0.5;" width="109" x="645.5" y="42.4883"/><text fill="#000000" font-family="sans-serif" font-size="14" lengthAdjust="spacing" textLength="95" x="652.5" y="63.0234">Fastify-Server</text><rect fill="#E2E2F0" height="30.4883" rx="2.5" ry="2.5" style="stroke:#181818;stroke-width:0.5;" width="109" x="645.5" y="659.0762"/><text fill="#000000" font-family="sans-serif" font-size="14" lengthAdjust="spacing" textLength="95" x="652.5" y="679.6113">Fastify-Server</text><rect fill="#E2E2F0" height="30.4883" rx="2.5" ry="2.5" style="stroke:#181818;stroke-width:0.5;" width="116" x="780" y="42.4883"/><text fill="#000000" font-family="sans-serif" font-size="14" lengthAdjust="spacing" textLength="102" x="787" y="63.0234">MetaDB-Server</text><rect fill="#E2E2F0" height="30.4883" rx="2.5" ry="2.5" style="stroke:#181818;stroke-width:0.5;" width="116" x="780" y="659.0762"/><text fill="#000000" font-family="sans-serif" font-size="14" lengthAdjust="spacing" textLength="102" x="787" y="679.6113">MetaDB-Server</text><rect fill="#E2E2F0" height="30.4883" rx="2.5" ry="2.5" style="stroke:#181818;stroke-width:0.5;" width="65" x="1067.5" y="42.4883"/><text fill="#000000" font-family="sans-serif" font-size="14" lengthAdjust="spacing" textLength="51" x="1074.5" y="63.0234">MetaDB</text><rect fill="#E2E2F0" height="30.4883" rx="2.5" ry="2.5" style="stroke:#181818;stroke-width:0.5;" width="65" x="1067.5" y="659.0762"/><text fill="#000000" font-family="sans-serif" font-size="14" lengthAdjust="spacing" textLength="51" x="1074.5" y="679.6113">MetaDB</text><rect fill="#E2E2F0" height="30.4883" rx="2.5" ry="2.5" style="stroke:#181818;stroke-width:0.5;" width="126" x="1180" y="42.4883"/><text fill="#000000" font-family="sans-serif" font-size="14" lengthAdjust="spacing" textLength="112" x="1187" y="63.0234">Message-Broker</text><rect fill="#E2E2F0" height="30.4883" rx="2.5" ry="2.5" style="stroke:#181818;stroke-width:0.5;" width="126" x="1180" y="659.0762"/><text fill="#000000" font-family="sans-serif" font-size="14" lengthAdjust="spacing" textLength="112" x="1187" y="679.6113">Message-Broker</text><polygon fill="#181818" points="596,101.2871,606,105.2871,596,109.2871,600,105.2871" style="stroke:#181818;stroke-width:1.0;"/><line style="stroke:#181818;stroke-width:1.0;" x1="77" x2="602" y1="105.2871" y2="105.2871"/><text fill="#000000" font-family="sans-serif" font-size="13" lengthAdjust="spacing" textLength="507" x="84" y="100.5449">Benutzerdaten (username, email, password) an /checkAndCreateUser des Servers</text><polygon fill="#181818" points="826,130.5977,836,134.5977,826,138.5977,830,134.5977" style="stroke:#181818;stroke-width:1.0;"/><line style="stroke:#181818;stroke-width:1.0;" x1="608" x2="832" y1="134.5977" y2="134.5977"/><text fill="#000000" font-family="sans-serif" font-size="13" lengthAdjust="spacing" textLength="206" x="615" y="129.8555">Weiterleitung an einen der Server</text><path d="M10,149.5977 L72,149.5977 L72,156.9082 L62,166.9082 L10,166.9082 L10,149.5977 " fill="#EEEEEE" style="stroke:#000000;stroke-width:1.5;"/><rect fill="none" height="493.4785" style="stroke:#000000;stroke-width:1.5;" width="1336" x="10" y="149.5977"/><text fill="#000000" font-family="sans-serif" font-size="13" font-weight="bold" lengthAdjust="spacing" textLength="17" x="25" y="163.166">alt</text><text fill="#000000" font-family="sans-serif" font-size="11" font-weight="bold" lengthAdjust="spacing" textLength="141" x="87" y="162.2324">[Benutzername ist g&#252;ltig]</text><path d="M20,173.9082 L82,173.9082 L82,181.2188 L72,191.2188 L20,191.2188 L20,173.9082 " fill="#EEEEEE" style="stroke:#000000;stroke-width:1.5;"/><rect fill="none" height="417.9023" style="stroke:#000000;stroke-width:1.5;" width="1316" x="20" y="173.9082"/><text fill="#000000" font-family="sans-serif" font-size="13" font-weight="bold" lengthAdjust="spacing" textLength="17" x="35" y="187.4766">alt</text><text fill="#000000" font-family="sans-serif" font-size="11" font-weight="bold" lengthAdjust="spacing" textLength="101" x="97" y="186.543">[E-Mail ist g&#252;ltig]</text><path d="M30,198.2188 L92,198.2188 L92,205.5293 L82,215.5293 L30,215.5293 L30,198.2188 " fill="#EEEEEE" style="stroke:#000000;stroke-width:1.5;"/><rect fill="none" height="342.3262" style="stroke:#000000;stroke-width:1.5;" width="1296" x="30" y="198.2188"/><text fill="#000000" font-family="sans-serif" font-size="13" font-weight="bold" lengthAdjust="spacing" textLength="17" x="45" y="211.7871">alt</text><text fill="#000000" font-family="sans-serif" font-size="11" font-weight="bold" lengthAdjust="spacing" textLength="113" x="107" y="210.8535">[Passwort ist g&#252;ltig]</text><polygon fill="#181818" points="1088,232.8398,1098,236.8398,1088,240.8398,1092,236.8398" style="stroke:#181818;stroke-width:1.0;"/><line style="stroke:#181818;stroke-width:1.0;" x1="838" x2="1094" y1="236.8398" y2="236.8398"/><text fill="#000000" font-family="sans-serif" font-size="13" lengthAdjust="spacing" textLength="238" x="845" y="232.0977">Abfrage auf Benutzername und E-Mail</text><polygon fill="#181818" points="849,262.1504,839,266.1504,849,270.1504,845,266.1504" style="stroke:#181818;stroke-width:1.0;"/><line style="stroke:#181818;stroke-width:1.0;" x1="843" x2="1099" y1="266.1504" y2="266.1504"/><text fill="#000000" font-family="sans-serif" font-size="13" lengthAdjust="spacing" textLength="131" x="855" y="261.4082">Ergebnis der Abfrage</text><path d="M40,281.1504 L102,281.1504 L102,288.4609 L92,298.4609 L40,298.4609 L40,281.1504 " fill="#EEEEEE" style="stroke:#000000;stroke-width:1.5;"/><rect fill="none" height="208.1289" style="stroke:#000000;stroke-width:1.5;" width="1276" x="40" y="281.1504"/><text fill="#000000" font-family="sans-serif" font-size="13" font-weight="bold" lengthAdjust="spacing" textLength="17" x="55" y="294.7188">alt</text><text fill="#000000" font-family="sans-serif" font-size="11" font-weight="bold" lengthAdjust="spacing" textLength="238" x="117" y="293.7852">[Benutzername oder E-Mail existiert nicht]</text><polygon fill="#181818" points="1231,315.7715,1241,319.7715,1231,323.7715,1235,319.7715" style="stroke:#181818;stroke-width:1.0;"/><line style="stroke:#181818;stroke-width:1.0;" x1="838" x2="1237" y1="319.7715" y2="319.7715"/><text fill="#000000" font-family="sans-serif" font-size="13" lengthAdjust="spacing" textLength="381" x="845" y="315.0293">Benutzerkonto erstellen (username, email, hashed password)</text><polygon fill="#181818" points="849,345.082,839,349.082,849,353.082,845,349.082" style="stroke:#181818;stroke-width:1.0;"/><line style="stroke:#181818;stroke-width:1.0;" x1="843" x2="1242" y1="349.082" y2="349.082"/><text fill="#000000" font-family="sans-serif" font-size="13" lengthAdjust="spacing" textLength="265" x="855" y="344.3398">Weiterleitung zur Erstellung des Benutzers</text><polygon fill="#181818" points="1088,374.3926,1098,378.3926,1088,382.3926,1092,378.3926" style="stroke:#181818;stroke-width:1.0;"/><line style="stroke:#181818;stroke-width:1.0;" x1="838" x2="1094" y1="378.3926" y2="378.3926"/><text fill="#000000" font-family="sans-serif" font-size="13" lengthAdjust="spacing" textLength="187" x="845" y="373.6504">Erstellen des neuen Benutzers</text><polygon fill="#181818" points="849,403.7031,839,407.7031,849,411.7031,845,407.7031" style="stroke:#181818;stroke-width:1.0;"/><line style="stroke:#181818;stroke-width:1.0;stroke-dasharray:2.0,2.0;" x1="843" x2="1099" y1="407.7031" y2="407.7031"/><text fill="#000000" font-family="sans-serif" font-size="13" lengthAdjust="spacing" textLength="202" x="855" y="402.9609">Best&#228;tigung der Kontoerstellung</text><polygon fill="#181818" points="88,433.0137,78,437.0137,88,441.0137,84,437.0137" style="stroke:#181818;stroke-width:1.0;"/><line style="stroke:#181818;stroke-width:1.0;" x1="82" x2="837" y1="437.0137" y2="437.0137"/><text fill="#000000" font-family="sans-serif" font-size="13" lengthAdjust="spacing" textLength="179" x="94" y="432.2715">Erfolgreiche Kontoerstellung</text><line style="stroke:#000000;stroke-width:1.0;stroke-dasharray:2.0,2.0;" x1="40" x2="1316" y1="446.0137" y2="446.0137"/><text fill="#000000" font-family="sans-serif" font-size="11" font-weight="bold" lengthAdjust="spacing" textLength="248" x="45" y="456.6484">[Benutzername oder E-Mail existiert bereits]</text><polygon fill="#181818" points="88,477.2793,78,481.2793,88,485.2793,84,481.2793" style="stroke:#181818;stroke-width:1.0;"/><line style="stroke:#181818;stroke-width:1.0;" x1="82" x2="837" y1="481.2793" y2="481.2793"/><text fill="#000000" font-family="sans-serif" font-size="13" lengthAdjust="spacing" textLength="96" x="94" y="476.5371">Fehlerr&#252;ckgabe</text><line style="stroke:#000000;stroke-width:1.0;stroke-dasharray:2.0,2.0;" x1="30" x2="1326" y1="497.2793" y2="497.2793"/><text fill="#000000" font-family="sans-serif" font-size="11" font-weight="bold" lengthAdjust="spacing" textLength="109" x="35" y="507.9141">[Passwort ung&#252;ltig]</text><polygon fill="#181818" points="88,528.5449,78,532.5449,88,536.5449,84,532.5449" style="stroke:#181818;stroke-width:1.0;"/><line style="stroke:#181818;stroke-width:1.0;" x1="82" x2="837" y1="532.5449" y2="532.5449"/><text fill="#000000" font-family="sans-serif" font-size="13" lengthAdjust="spacing" textLength="96" x="94" y="527.8027">Fehlerr&#252;ckgabe</text><line style="stroke:#000000;stroke-width:1.0;stroke-dasharray:2.0,2.0;" x1="20" x2="1336" y1="548.5449" y2="548.5449"/><text fill="#000000" font-family="sans-serif" font-size="11" font-weight="bold" lengthAdjust="spacing" textLength="97" x="25" y="559.1797">[E-Mail ung&#252;ltig]</text><polygon fill="#181818" points="88,579.8105,78,583.8105,88,587.8105,84,583.8105" style="stroke:#181818;stroke-width:1.0;"/><line style="stroke:#181818;stroke-width:1.0;" x1="82" x2="837" y1="583.8105" y2="583.8105"/><text fill="#000000" font-family="sans-serif" font-size="13" lengthAdjust="spacing" textLength="96" x="94" y="579.0684">Fehlerr&#252;ckgabe</text><line style="stroke:#000000;stroke-width:1.0;stroke-dasharray:2.0,2.0;" x1="10" x2="1346" y1="599.8105" y2="599.8105"/><text fill="#000000" font-family="sans-serif" font-size="11" font-weight="bold" lengthAdjust="spacing" textLength="137" x="15" y="610.4453">[Benutzername ung&#252;ltig]</text><polygon fill="#181818" points="88,631.0762,78,635.0762,88,639.0762,84,635.0762" style="stroke:#181818;stroke-width:1.0;"/><line style="stroke:#181818;stroke-width:1.0;" x1="82" x2="837" y1="635.0762" y2="635.0762"/><text fill="#000000" font-family="sans-serif" font-size="13" lengthAdjust="spacing" textLength="142" x="94" y="630.334">Fehler: Fehlerr&#252;ckgabe</text><!--SRC=[bPF1Rjim38RlUWgYfmseiNiE0veklGmT1Wp3pehznnQYoe54RrsVPu_HMrvib6MxKPtLcGy6O_xw-P5KsB05hU4wVeBVjuvRqiwYXbFge3sRqXoqOxgwjGQEhqW7Ic6U_b8RzzXd-oXFtkd0PlUx-0R_4xvNfJ2NtOFrf_MfAdtvj_P4z3eTWgvHh7sx7xnIg5IYf-9Z8brDtLUQuUXT5-2TVi0ruK4RUqq77SAlrbVlPJBqeMnGxczSTUiX-kyYfWfZFq7rdj7y57r5Fs0OtigxStNqWN5Ih9BJGtTAMvvGOdqoWQa-FbisjI9vec1Jt0lJB3McloPKFYk8podL2-MARhOxB_CYtUroYCvLGz4pFlC-Dxx6rfdGTpQOgkpahCqsIeU-y2ZW1jA0CsN3sS5p-6cdgrSNMFR0iFRiCXiT6bGlEvsLI9PB6tpgX3cLYJ_Z3HWPmYBrEFJDn1dFEtGIBRbGCIDR8_3nZsmwaNZw7AU0YMwH9_qZ8i-kjRM7Z1vlci06NBB4BSICmyK0TsWil3y-b_jQRv7NT9NAwaztNUWkkEbBDKR_tdlePExyFwxHSJwftFDjlxblzFmB]--></g></svg>