<?xml version="1.0" encoding="us-ascii" standalone="no"?><svg xmlns="http://www.w3.org/2000/svg" xmlns:xlink="http://www.w3.org/1999/xlink" contentStyleType="text/css" height="879px" preserveAspectRatio="none" style="width:1835px;height:879px;background:#FFFFFF;" version="1.1" viewBox="0 0 1835 879" width="1835px" zoomAndPan="magnify"><defs/><g><text fill="#000000" font-family="sans-serif" font-size="14" font-weight="bold" lengthAdjust="spacing" textLength="98" x="869.75" y="28.5352">Datei l&#246;schen</text><rect fill="none" height="635.4316" style="stroke:#000000;stroke-width:1.5;" width="1818.5" x="10" y="191.9082"/><rect fill="none" height="354.6816" style="stroke:#000000;stroke-width:1.5;" width="1798.5" x="20" y="392.082"/><line style="stroke:#181818;stroke-width:0.5;stroke-dasharray:5.0,5.0;" x1="57" x2="57" y1="73.9766" y2="844.3398"/><line style="stroke:#181818;stroke-width:0.5;stroke-dasharray:5.0,5.0;" x1="391.5" x2="391.5" y1="73.9766" y2="844.3398"/><line style="stroke:#181818;stroke-width:0.5;stroke-dasharray:5.0,5.0;" x1="769.5" x2="769.5" y1="73.9766" y2="844.3398"/><line style="stroke:#181818;stroke-width:0.5;stroke-dasharray:5.0,5.0;" x1="1043" x2="1043" y1="73.9766" y2="844.3398"/><line style="stroke:#181818;stroke-width:0.5;stroke-dasharray:5.0,5.0;" x1="1231" x2="1231" y1="73.9766" y2="844.3398"/><line style="stroke:#181818;stroke-width:0.5;stroke-dasharray:5.0,5.0;" x1="1353" x2="1353" y1="73.9766" y2="844.3398"/><line style="stroke:#181818;stroke-width:0.5;stroke-dasharray:5.0,5.0;" x1="1546" x2="1546" y1="73.9766" y2="844.3398"/><line style="stroke:#181818;stroke-width:0.5;stroke-dasharray:5.0,5.0;" x1="1775.5" x2="1775.5" y1="73.9766" y2="844.3398"/><rect fill="#E2E2F0" height="30.4883" rx="2.5" ry="2.5" style="stroke:#181818;stroke-width:0.5;" width="54" x="30" y="42.4883"/><text fill="#000000" font-family="sans-serif" font-size="14" lengthAdjust="spacing" textLength="40" x="37" y="63.0234">Client</text><rect fill="#E2E2F0" height="30.4883" rx="2.5" ry="2.5" style="stroke:#181818;stroke-width:0.5;" width="54" x="30" y="843.3398"/><text fill="#000000" font-family="sans-serif" font-size="14" lengthAdjust="spacing" textLength="40" x="37" y="863.875">Client</text><rect fill="#E2E2F0" height="30.4883" rx="2.5" ry="2.5" style="stroke:#181818;stroke-width:0.5;" width="55" x="364.5" y="42.4883"/><text fill="#000000" font-family="sans-serif" font-size="14" lengthAdjust="spacing" textLength="41" x="371.5" y="63.0234">Nginx</text><rect fill="#E2E2F0" height="30.4883" rx="2.5" ry="2.5" style="stroke:#181818;stroke-width:0.5;" width="55" x="364.5" y="843.3398"/><text fill="#000000" font-family="sans-serif" font-size="14" lengthAdjust="spacing" textLength="41" x="371.5" y="863.875">Nginx</text><rect fill="#E2E2F0" height="30.4883" rx="2.5" ry="2.5" style="stroke:#181818;stroke-width:0.5;" width="109" x="715.5" y="42.4883"/><text fill="#000000" font-family="sans-serif" font-size="14" lengthAdjust="spacing" textLength="95" x="722.5" y="63.0234">Fastify-Server</text><rect fill="#E2E2F0" height="30.4883" rx="2.5" ry="2.5" style="stroke:#181818;stroke-width:0.5;" width="109" x="715.5" y="843.3398"/><text fill="#000000" font-family="sans-serif" font-size="14" lengthAdjust="spacing" textLength="95" x="722.5" y="863.875">Fastify-Server</text><rect fill="#E2E2F0" height="30.4883" rx="2.5" ry="2.5" style="stroke:#181818;stroke-width:0.5;" width="102" x="992" y="42.4883"/><text fill="#000000" font-family="sans-serif" font-size="14" lengthAdjust="spacing" textLength="88" x="999" y="63.0234">MinIO-Client</text><rect fill="#E2E2F0" height="30.4883" rx="2.5" ry="2.5" style="stroke:#181818;stroke-width:0.5;" width="102" x="992" y="843.3398"/><text fill="#000000" font-family="sans-serif" font-size="14" lengthAdjust="spacing" textLength="88" x="999" y="863.875">MinIO-Client</text><rect fill="#E2E2F0" height="30.4883" rx="2.5" ry="2.5" style="stroke:#181818;stroke-width:0.5;" width="98" x="1182" y="42.4883"/><text fill="#000000" font-family="sans-serif" font-size="14" lengthAdjust="spacing" textLength="84" x="1189" y="63.0234">MinIO-Node</text><rect fill="#E2E2F0" height="30.4883" rx="2.5" ry="2.5" style="stroke:#181818;stroke-width:0.5;" width="98" x="1182" y="843.3398"/><text fill="#000000" font-family="sans-serif" font-size="14" lengthAdjust="spacing" textLength="84" x="1189" y="863.875">MinIO-Node</text><rect fill="#E2E2F0" height="30.4883" rx="2.5" ry="2.5" style="stroke:#181818;stroke-width:0.5;" width="126" x="1290" y="42.4883"/><text fill="#000000" font-family="sans-serif" font-size="14" lengthAdjust="spacing" textLength="112" x="1297" y="63.0234">Message-Broker</text><rect fill="#E2E2F0" height="30.4883" rx="2.5" ry="2.5" style="stroke:#181818;stroke-width:0.5;" width="126" x="1290" y="843.3398"/><text fill="#000000" font-family="sans-serif" font-size="14" lengthAdjust="spacing" textLength="112" x="1297" y="863.875">Message-Broker</text><rect fill="#E2E2F0" height="30.4883" rx="2.5" ry="2.5" style="stroke:#181818;stroke-width:0.5;" width="116" x="1488" y="42.4883"/><text fill="#000000" font-family="sans-serif" font-size="14" lengthAdjust="spacing" textLength="102" x="1495" y="63.0234">MetaDB-Server</text><rect fill="#E2E2F0" height="30.4883" rx="2.5" ry="2.5" style="stroke:#181818;stroke-width:0.5;" width="116" x="1488" y="843.3398"/><text fill="#000000" font-family="sans-serif" font-size="14" lengthAdjust="spacing" textLength="102" x="1495" y="863.875">MetaDB-Server</text><rect fill="#E2E2F0" height="30.4883" rx="2.5" ry="2.5" style="stroke:#181818;stroke-width:0.5;" width="65" x="1743.5" y="42.4883"/><text fill="#000000" font-family="sans-serif" font-size="14" lengthAdjust="spacing" textLength="51" x="1750.5" y="63.0234">MetaDB</text><rect fill="#E2E2F0" height="30.4883" rx="2.5" ry="2.5" style="stroke:#181818;stroke-width:0.5;" width="65" x="1743.5" y="843.3398"/><text fill="#000000" font-family="sans-serif" font-size="14" lengthAdjust="spacing" textLength="51" x="1750.5" y="863.875">MetaDB</text><polygon fill="#181818" points="380,101.2871,390,105.2871,380,109.2871,384,105.2871" style="stroke:#181818;stroke-width:1.0;"/><line style="stroke:#181818;stroke-width:1.0;" x1="57" x2="386" y1="105.2871" y2="105.2871"/><text fill="#000000" font-family="sans-serif" font-size="13" lengthAdjust="spacing" textLength="311" x="64" y="100.5449">Datei Identifier, JWT Token an /delete des Servers</text><polygon fill="#181818" points="758,130.5977,768,134.5977,758,138.5977,762,134.5977" style="stroke:#181818;stroke-width:1.0;"/><line style="stroke:#181818;stroke-width:1.0;" x1="392" x2="764" y1="134.5977" y2="134.5977"/><text fill="#000000" font-family="sans-serif" font-size="13" lengthAdjust="spacing" textLength="354" x="399" y="129.8555">Datei Identifier, JWT Token auf einen der Server verteilen</text><line style="stroke:#181818;stroke-width:1.0;" x1="770" x2="812" y1="163.9082" y2="163.9082"/><line style="stroke:#181818;stroke-width:1.0;" x1="812" x2="812" y1="163.9082" y2="176.9082"/><line style="stroke:#181818;stroke-width:1.0;" x1="771" x2="812" y1="176.9082" y2="176.9082"/><polygon fill="#181818" points="781,172.9082,771,176.9082,781,180.9082,777,176.9082" style="stroke:#181818;stroke-width:1.0;"/><text fill="#000000" font-family="sans-serif" font-size="13" lengthAdjust="spacing" textLength="164" x="777" y="159.166">JWT Token Authentifizung</text><path d="M10,191.9082 L72,191.9082 L72,199.2188 L62,209.2188 L10,209.2188 L10,191.9082 " fill="#EEEEEE" style="stroke:#000000;stroke-width:1.5;"/><rect fill="none" height="635.4316" style="stroke:#000000;stroke-width:1.5;" width="1818.5" x="10" y="191.9082"/><text fill="#000000" font-family="sans-serif" font-size="13" font-weight="bold" lengthAdjust="spacing" textLength="17" x="25" y="205.4766">alt</text><text fill="#000000" font-family="sans-serif" font-size="11" font-weight="bold" lengthAdjust="spacing" textLength="172" x="87" y="204.543">[Authentifizierung erfolgreich]</text><polygon fill="#181818" points="403,226.5293,393,230.5293,403,234.5293,399,230.5293" style="stroke:#181818;stroke-width:1.0;"/><line style="stroke:#181818;stroke-width:1.0;" x1="397" x2="769" y1="230.5293" y2="230.5293"/><text fill="#000000" font-family="sans-serif" font-size="13" lengthAdjust="spacing" textLength="184" x="409" y="225.7871">Aufruf /getFile f&#252;r Metadaten</text><polygon fill="#181818" points="1534,255.8398,1544,259.8398,1534,263.8398,1538,259.8398" style="stroke:#181818;stroke-width:1.0;"/><line style="stroke:#181818;stroke-width:1.0;" x1="392" x2="1540" y1="259.8398" y2="259.8398"/><text fill="#000000" font-family="sans-serif" font-size="13" lengthAdjust="spacing" textLength="169" x="399" y="255.0977">Weiterleitung an DB-Server</text><polygon fill="#181818" points="1764,285.1504,1774,289.1504,1764,293.1504,1768,289.1504" style="stroke:#181818;stroke-width:1.0;"/><line style="stroke:#181818;stroke-width:1.0;" x1="1546" x2="1770" y1="289.1504" y2="289.1504"/><text fill="#000000" font-family="sans-serif" font-size="13" lengthAdjust="spacing" textLength="183" x="1553" y="284.4082">Abfrage der Datei-Metadaten</text><polygon fill="#181818" points="1557,314.4609,1547,318.4609,1557,322.4609,1553,318.4609" style="stroke:#181818;stroke-width:1.0;"/><line style="stroke:#181818;stroke-width:1.0;" x1="1551" x2="1775" y1="318.4609" y2="318.4609"/><text fill="#000000" font-family="sans-serif" font-size="13" lengthAdjust="spacing" textLength="131" x="1563" y="313.7188">Ergebnis der Abfrage</text><polygon fill="#181818" points="403,343.7715,393,347.7715,403,351.7715,399,347.7715" style="stroke:#181818;stroke-width:1.0;"/><line style="stroke:#181818;stroke-width:1.0;" x1="397" x2="1545" y1="347.7715" y2="347.7715"/><text fill="#000000" font-family="sans-serif" font-size="13" lengthAdjust="spacing" textLength="131" x="409" y="343.0293">Ergebnis der Abfrage</text><polygon fill="#181818" points="758,373.082,768,377.082,758,381.082,762,377.082" style="stroke:#181818;stroke-width:1.0;"/><line style="stroke:#181818;stroke-width:1.0;" x1="392" x2="764" y1="377.082" y2="377.082"/><text fill="#000000" font-family="sans-serif" font-size="13" lengthAdjust="spacing" textLength="106" x="399" y="372.3398">Datei-Metadaten</text><path d="M20,392.082 L82,392.082 L82,399.3926 L72,409.3926 L20,409.3926 L20,392.082 " fill="#EEEEEE" style="stroke:#000000;stroke-width:1.5;"/><rect fill="none" height="354.6816" style="stroke:#000000;stroke-width:1.5;" width="1798.5" x="20" y="392.082"/><text fill="#000000" font-family="sans-serif" font-size="13" font-weight="bold" lengthAdjust="spacing" textLength="17" x="35" y="405.6504">alt</text><text fill="#000000" font-family="sans-serif" font-size="11" font-weight="bold" lengthAdjust="spacing" textLength="257" x="97" y="404.7168">[Authentifizierter Nutzer ist der Dateibesitzer]</text><polygon fill="#181818" points="1031,426.7031,1041,430.7031,1031,434.7031,1035,430.7031" style="stroke:#181818;stroke-width:1.0;"/><line style="stroke:#181818;stroke-width:1.0;" x1="770" x2="1037" y1="430.7031" y2="430.7031"/><text fill="#000000" font-family="sans-serif" font-size="13" lengthAdjust="spacing" textLength="249" x="777" y="425.9609">deleteObject(Identifier) Funktionsaufruf</text><polygon fill="#181818" points="1219,456.0137,1229,460.0137,1219,464.0137,1223,460.0137" style="stroke:#181818;stroke-width:1.0;"/><line style="stroke:#181818;stroke-width:1.0;" x1="1043" x2="1225" y1="460.0137" y2="460.0137"/><text fill="#000000" font-family="sans-serif" font-size="13" lengthAdjust="spacing" textLength="113" x="1050" y="455.2715">L&#246;schen der Datei</text><polygon fill="#181818" points="1054,485.3242,1044,489.3242,1054,493.3242,1050,489.3242" style="stroke:#181818;stroke-width:1.0;"/><line style="stroke:#181818;stroke-width:1.0;" x1="1048" x2="1230" y1="489.3242" y2="489.3242"/><text fill="#000000" font-family="sans-serif" font-size="13" lengthAdjust="spacing" textLength="164" x="1060" y="484.582">Status des L&#246;schvorgangs</text><polygon fill="#181818" points="781,514.6348,771,518.6348,781,522.6348,777,518.6348" style="stroke:#181818;stroke-width:1.0;"/><line style="stroke:#181818;stroke-width:1.0;" x1="775" x2="1042" y1="518.6348" y2="518.6348"/><text fill="#000000" font-family="sans-serif" font-size="13" lengthAdjust="spacing" textLength="164" x="787" y="513.8926">Status des L&#246;schvorgangs</text><polygon fill="#181818" points="1341,543.9453,1351,547.9453,1341,551.9453,1345,547.9453" style="stroke:#181818;stroke-width:1.0;"/><line style="stroke:#181818;stroke-width:1.0;" x1="770" x2="1347" y1="547.9453" y2="547.9453"/><text fill="#000000" font-family="sans-serif" font-size="13" lengthAdjust="spacing" textLength="283" x="777" y="543.2031">Nachricht f&#252;r /deleteFileData des DB-Servers</text><polygon fill="#181818" points="1534,573.2559,1544,577.2559,1534,581.2559,1538,577.2559" style="stroke:#181818;stroke-width:1.0;"/><line style="stroke:#181818;stroke-width:1.0;" x1="1353" x2="1540" y1="577.2559" y2="577.2559"/><text fill="#000000" font-family="sans-serif" font-size="13" lengthAdjust="spacing" textLength="169" x="1360" y="572.5137">Weiterleitung an DB-Server</text><polygon fill="#181818" points="1764,602.5664,1774,606.5664,1764,610.5664,1768,606.5664" style="stroke:#181818;stroke-width:1.0;"/><line style="stroke:#181818;stroke-width:1.0;" x1="1546" x2="1770" y1="606.5664" y2="606.5664"/><text fill="#000000" font-family="sans-serif" font-size="13" lengthAdjust="spacing" textLength="206" x="1553" y="601.8242">L&#246;schen der Datei Informationen</text><polygon fill="#181818" points="403,631.877,393,635.877,403,639.877,399,635.877" style="stroke:#181818;stroke-width:1.0;"/><line style="stroke:#181818;stroke-width:1.0;" x1="397" x2="769" y1="635.877" y2="635.877"/><text fill="#000000" font-family="sans-serif" font-size="13" lengthAdjust="spacing" textLength="94" x="409" y="631.1348">Statusmeldung</text><polygon fill="#181818" points="68,661.1875,58,665.1875,68,669.1875,64,665.1875" style="stroke:#181818;stroke-width:1.0;"/><line style="stroke:#181818;stroke-width:1.0;" x1="62" x2="391" y1="665.1875" y2="665.1875"/><text fill="#000000" font-family="sans-serif" font-size="13" lengthAdjust="spacing" textLength="94" x="74" y="660.4453">Statusmeldung</text><line style="stroke:#000000;stroke-width:1.0;stroke-dasharray:2.0,2.0;" x1="20" x2="1818.5" y1="674.1875" y2="674.1875"/><text fill="#000000" font-family="sans-serif" font-size="11" font-weight="bold" lengthAdjust="spacing" textLength="289" x="25" y="684.8223">[Authentifizierter Nutzer ist nicht der Dateibesitzer]</text><polygon fill="#181818" points="403,705.4531,393,709.4531,403,713.4531,399,709.4531" style="stroke:#181818;stroke-width:1.0;"/><line style="stroke:#181818;stroke-width:1.0;" x1="397" x2="769" y1="709.4531" y2="709.4531"/><text fill="#000000" font-family="sans-serif" font-size="13" lengthAdjust="spacing" textLength="93" x="409" y="704.7109">Fehlermeldung</text><polygon fill="#181818" points="68,734.7637,58,738.7637,68,742.7637,64,738.7637" style="stroke:#181818;stroke-width:1.0;"/><line style="stroke:#181818;stroke-width:1.0;" x1="62" x2="391" y1="738.7637" y2="738.7637"/><text fill="#000000" font-family="sans-serif" font-size="13" lengthAdjust="spacing" textLength="93" x="74" y="734.0215">Fehlermeldung</text><line style="stroke:#000000;stroke-width:1.0;stroke-dasharray:2.0,2.0;" x1="10" x2="1828.5" y1="754.7637" y2="754.7637"/><text fill="#000000" font-family="sans-serif" font-size="11" font-weight="bold" lengthAdjust="spacing" textLength="194" x="15" y="765.3984">[Authentifizierung fehlgeschlagen]</text><polygon fill="#181818" points="403,786.0293,393,790.0293,403,794.0293,399,790.0293" style="stroke:#181818;stroke-width:1.0;"/><line style="stroke:#181818;stroke-width:1.0;" x1="397" x2="769" y1="790.0293" y2="790.0293"/><text fill="#000000" font-family="sans-serif" font-size="13" lengthAdjust="spacing" textLength="93" x="409" y="785.2871">Fehlermeldung</text><polygon fill="#181818" points="68,815.3398,58,819.3398,68,823.3398,64,819.3398" style="stroke:#181818;stroke-width:1.0;"/><line style="stroke:#181818;stroke-width:1.0;" x1="62" x2="391" y1="819.3398" y2="819.3398"/><text fill="#000000" font-family="sans-serif" font-size="13" lengthAdjust="spacing" textLength="93" x="74" y="814.5977">Fehlermeldung</text><!--SRC=[bLHDRzim3BthLn0zTS2CtdqOq2mBa65D3otGisBJjbPLBYIwsFh3TjgjVsmqvS_4QRe0SMJfFJxoYGmPiWXhJMZ0llq9MOLEgMVjoMJcMJk2Yw_MeACBq07YSdwyAutx9QUocXzkT21J_4xkqB-W5rHSpc4tncrlaudGhixnDB0z5PYyjcy7A0n1bvYiVFtOgSRb8OpqUZNDRRrQ51LS59IbKZ5LIBx4ejFEmMtEkwOmw3_3zuTxk6TH1zh1LOuM2I77te2WXDc6Y1jdOZG5e76yoj5t3E0lCopVMBSn2JPIhnkgOiZNnfLAQKlJFHRYRK1VrBRqQB9A0N_6Y5s5rqtXEOch4cd3cb2y_VNYHyvfE-4C5VK-fl20Xj1RVhOYxCHWk31wO4kAthBGll1yUrAeM9BCLI9kBlFDbxXt9WYf2t0aq1Lo4hjy8HDrGHtRnmN2hg5N_Z61nhpt64oxApHv71WxD7aAiJzkzpyneykn1Jx1fd6FP6eNjFW_X1d9ubq_22dywAPup6FW3AX3zJlIr0JfpaX_gNsfNHbEo7sSjr1s7CKKTZghFBSRnLRgHgJjBSvQIz2XMSQ0aVrVJNQgqOwTWgqhQl-aMyFx-ruSXbZu4zgy7Qd1fBw1uj_34WnjmFVRnuaboqsqcCi6Aul-R2x7C7IvMiYdzR1WS8diZkNXSEg3kcSqMUyV]--></g></svg>