<?xml version="1.0" encoding="us-ascii" standalone="no"?><svg xmlns="http://www.w3.org/2000/svg" xmlns:xlink="http://www.w3.org/1999/xlink" contentStyleType="text/css" height="964px" preserveAspectRatio="none" style="width:1868px;height:964px;background:#FFFFFF;" version="1.1" viewBox="0 0 1868 964" width="1868px" zoomAndPan="magnify"><defs/><g><text fill="#000000" font-family="sans-serif" font-size="14" font-weight="bold" lengthAdjust="spacing" textLength="143" x="869.25" y="28.5352">Datei herunterladen</text><rect fill="none" height="268.75" style="stroke:#000000;stroke-width:1.5;" width="1842.5" x="20" y="642.877"/><rect fill="none" height="178.8184" style="stroke:#000000;stroke-width:1.5;" width="1277" x="575.5" y="725.8086"/><line style="stroke:#181818;stroke-width:0.5;stroke-dasharray:5.0,5.0;" x1="57" x2="57" y1="73.9766" y2="928.627"/><line style="stroke:#181818;stroke-width:0.5;stroke-dasharray:5.0,5.0;" x1="340.5" x2="340.5" y1="73.9766" y2="928.627"/><line style="stroke:#181818;stroke-width:0.5;stroke-dasharray:5.0,5.0;" x1="639.5" x2="639.5" y1="73.9766" y2="928.627"/><line style="stroke:#181818;stroke-width:0.5;stroke-dasharray:5.0,5.0;" x1="994" x2="994" y1="73.9766" y2="928.627"/><line style="stroke:#181818;stroke-width:0.5;stroke-dasharray:5.0,5.0;" x1="1180" x2="1180" y1="73.9766" y2="928.627"/><line style="stroke:#181818;stroke-width:0.5;stroke-dasharray:5.0,5.0;" x1="1302" x2="1302" y1="73.9766" y2="928.627"/><line style="stroke:#181818;stroke-width:0.5;stroke-dasharray:5.0,5.0;" x1="1495" x2="1495" y1="73.9766" y2="928.627"/><line style="stroke:#181818;stroke-width:0.5;stroke-dasharray:5.0,5.0;" x1="1809.5" x2="1809.5" y1="73.9766" y2="928.627"/><rect fill="#E2E2F0" height="30.4883" rx="2.5" ry="2.5" style="stroke:#181818;stroke-width:0.5;" width="54" x="30" y="42.4883"/><text fill="#000000" font-family="sans-serif" font-size="14" lengthAdjust="spacing" textLength="40" x="37" y="63.0234">Client</text><rect fill="#E2E2F0" height="30.4883" rx="2.5" ry="2.5" style="stroke:#181818;stroke-width:0.5;" width="54" x="30" y="927.627"/><text fill="#000000" font-family="sans-serif" font-size="14" lengthAdjust="spacing" textLength="40" x="37" y="948.1621">Client</text><rect fill="#E2E2F0" height="30.4883" rx="2.5" ry="2.5" style="stroke:#181818;stroke-width:0.5;" width="55" x="313.5" y="42.4883"/><text fill="#000000" font-family="sans-serif" font-size="14" lengthAdjust="spacing" textLength="41" x="320.5" y="63.0234">Nginx</text><rect fill="#E2E2F0" height="30.4883" rx="2.5" ry="2.5" style="stroke:#181818;stroke-width:0.5;" width="55" x="313.5" y="927.627"/><text fill="#000000" font-family="sans-serif" font-size="14" lengthAdjust="spacing" textLength="41" x="320.5" y="948.1621">Nginx</text><rect fill="#E2E2F0" height="30.4883" rx="2.5" ry="2.5" style="stroke:#181818;stroke-width:0.5;" width="109" x="585.5" y="42.4883"/><text fill="#000000" font-family="sans-serif" font-size="14" lengthAdjust="spacing" textLength="95" x="592.5" y="63.0234">Fastify-Server</text><rect fill="#E2E2F0" height="30.4883" rx="2.5" ry="2.5" style="stroke:#181818;stroke-width:0.5;" width="109" x="585.5" y="927.627"/><text fill="#000000" font-family="sans-serif" font-size="14" lengthAdjust="spacing" textLength="95" x="592.5" y="948.1621">Fastify-Server</text><rect fill="#E2E2F0" height="30.4883" rx="2.5" ry="2.5" style="stroke:#181818;stroke-width:0.5;" width="102" x="943" y="42.4883"/><text fill="#000000" font-family="sans-serif" font-size="14" lengthAdjust="spacing" textLength="88" x="950" y="63.0234">MinIO-Client</text><rect fill="#E2E2F0" height="30.4883" rx="2.5" ry="2.5" style="stroke:#181818;stroke-width:0.5;" width="102" x="943" y="927.627"/><text fill="#000000" font-family="sans-serif" font-size="14" lengthAdjust="spacing" textLength="88" x="950" y="948.1621">MinIO-Client</text><rect fill="#E2E2F0" height="30.4883" rx="2.5" ry="2.5" style="stroke:#181818;stroke-width:0.5;" width="98" x="1131" y="42.4883"/><text fill="#000000" font-family="sans-serif" font-size="14" lengthAdjust="spacing" textLength="84" x="1138" y="63.0234">MinIO-Node</text><rect fill="#E2E2F0" height="30.4883" rx="2.5" ry="2.5" style="stroke:#181818;stroke-width:0.5;" width="98" x="1131" y="927.627"/><text fill="#000000" font-family="sans-serif" font-size="14" lengthAdjust="spacing" textLength="84" x="1138" y="948.1621">MinIO-Node</text><rect fill="#E2E2F0" height="30.4883" rx="2.5" ry="2.5" style="stroke:#181818;stroke-width:0.5;" width="126" x="1239" y="42.4883"/><text fill="#000000" font-family="sans-serif" font-size="14" lengthAdjust="spacing" textLength="112" x="1246" y="63.0234">Message-Broker</text><rect fill="#E2E2F0" height="30.4883" rx="2.5" ry="2.5" style="stroke:#181818;stroke-width:0.5;" width="126" x="1239" y="927.627"/><text fill="#000000" font-family="sans-serif" font-size="14" lengthAdjust="spacing" textLength="112" x="1246" y="948.1621">Message-Broker</text><rect fill="#E2E2F0" height="30.4883" rx="2.5" ry="2.5" style="stroke:#181818;stroke-width:0.5;" width="116" x="1437" y="42.4883"/><text fill="#000000" font-family="sans-serif" font-size="14" lengthAdjust="spacing" textLength="102" x="1444" y="63.0234">MetaDB-Server</text><rect fill="#E2E2F0" height="30.4883" rx="2.5" ry="2.5" style="stroke:#181818;stroke-width:0.5;" width="116" x="1437" y="927.627"/><text fill="#000000" font-family="sans-serif" font-size="14" lengthAdjust="spacing" textLength="102" x="1444" y="948.1621">MetaDB-Server</text><rect fill="#E2E2F0" height="30.4883" rx="2.5" ry="2.5" style="stroke:#181818;stroke-width:0.5;" width="65" x="1777.5" y="42.4883"/><text fill="#000000" font-family="sans-serif" font-size="14" lengthAdjust="spacing" textLength="51" x="1784.5" y="63.0234">MetaDB</text><rect fill="#E2E2F0" height="30.4883" rx="2.5" ry="2.5" style="stroke:#181818;stroke-width:0.5;" width="65" x="1777.5" y="927.627"/><text fill="#000000" font-family="sans-serif" font-size="14" lengthAdjust="spacing" textLength="51" x="1784.5" y="948.1621">MetaDB</text><polygon fill="#181818" points="329,101.2871,339,105.2871,329,109.2871,333,105.2871" style="stroke:#181818;stroke-width:1.0;"/><line style="stroke:#181818;stroke-width:1.0;" x1="57" x2="335" y1="105.2871" y2="105.2871"/><text fill="#000000" font-family="sans-serif" font-size="13" lengthAdjust="spacing" textLength="260" x="64" y="100.5449">Datei Identifier an /download des Servers</text><polygon fill="#181818" points="628,130.5977,638,134.5977,628,138.5977,632,134.5977" style="stroke:#181818;stroke-width:1.0;"/><line style="stroke:#181818;stroke-width:1.0;" x1="341" x2="634" y1="134.5977" y2="134.5977"/><text fill="#000000" font-family="sans-serif" font-size="13" lengthAdjust="spacing" textLength="275" x="348" y="129.8555">Datei Identifier an einen der Server verteilen</text><polygon fill="#181818" points="352,159.9082,342,163.9082,352,167.9082,348,163.9082" style="stroke:#181818;stroke-width:1.0;"/><line style="stroke:#181818;stroke-width:1.0;" x1="346" x2="639" y1="163.9082" y2="163.9082"/><text fill="#000000" font-family="sans-serif" font-size="13" lengthAdjust="spacing" textLength="193" x="358" y="159.166">Aufruf /getFile des DB-Servers</text><polygon fill="#181818" points="1483,189.2188,1493,193.2188,1483,197.2188,1487,193.2188" style="stroke:#181818;stroke-width:1.0;"/><line style="stroke:#181818;stroke-width:1.0;" x1="341" x2="1489" y1="193.2188" y2="193.2188"/><text fill="#000000" font-family="sans-serif" font-size="13" lengthAdjust="spacing" textLength="169" x="348" y="188.4766">Weiterleitung an DB-Server</text><polygon fill="#181818" points="1798,218.5293,1808,222.5293,1798,226.5293,1802,222.5293" style="stroke:#181818;stroke-width:1.0;"/><line style="stroke:#181818;stroke-width:1.0;" x1="1495" x2="1804" y1="222.5293" y2="222.5293"/><text fill="#000000" font-family="sans-serif" font-size="13" lengthAdjust="spacing" textLength="203" x="1502" y="217.7871">Abfrage der Datei Informationen</text><polygon fill="#181818" points="1506,247.8398,1496,251.8398,1506,255.8398,1502,251.8398" style="stroke:#181818;stroke-width:1.0;"/><line style="stroke:#181818;stroke-width:1.0;" x1="1500" x2="1809" y1="251.8398" y2="251.8398"/><text fill="#000000" font-family="sans-serif" font-size="13" lengthAdjust="spacing" textLength="131" x="1512" y="247.0977">Ergebnis der Abfrage</text><polygon fill="#181818" points="352,277.1504,342,281.1504,352,285.1504,348,281.1504" style="stroke:#181818;stroke-width:1.0;"/><line style="stroke:#181818;stroke-width:1.0;" x1="346" x2="1494" y1="281.1504" y2="281.1504"/><text fill="#000000" font-family="sans-serif" font-size="13" lengthAdjust="spacing" textLength="131" x="358" y="276.4082">Ergebnis der Abfrage</text><polygon fill="#181818" points="628,306.4609,638,310.4609,628,314.4609,632,310.4609" style="stroke:#181818;stroke-width:1.0;"/><line style="stroke:#181818;stroke-width:1.0;" x1="341" x2="634" y1="310.4609" y2="310.4609"/><text fill="#000000" font-family="sans-serif" font-size="13" lengthAdjust="spacing" textLength="126" x="348" y="305.7188">Datei Informationen</text><polygon fill="#181818" points="352,335.7715,342,339.7715,352,343.7715,348,339.7715" style="stroke:#181818;stroke-width:1.0;"/><line style="stroke:#181818;stroke-width:1.0;" x1="346" x2="639" y1="339.7715" y2="339.7715"/><text fill="#000000" font-family="sans-serif" font-size="13" lengthAdjust="spacing" textLength="227" x="358" y="335.0293">Aufruf /minIOServer des DB-Servers</text><polygon fill="#181818" points="1483,365.082,1493,369.082,1483,373.082,1487,369.082" style="stroke:#181818;stroke-width:1.0;"/><line style="stroke:#181818;stroke-width:1.0;" x1="341" x2="1489" y1="369.082" y2="369.082"/><text fill="#000000" font-family="sans-serif" font-size="13" lengthAdjust="spacing" textLength="169" x="348" y="364.3398">Weiterleitung an DB-Server</text><polygon fill="#181818" points="1798,394.3926,1808,398.3926,1798,402.3926,1802,398.3926" style="stroke:#181818;stroke-width:1.0;"/><line style="stroke:#181818;stroke-width:1.0;" x1="1495" x2="1804" y1="398.3926" y2="398.3926"/><text fill="#000000" font-family="sans-serif" font-size="13" lengthAdjust="spacing" textLength="291" x="1502" y="393.6504">Abfrage der MinIONode, auf der die Datei liegt</text><polygon fill="#181818" points="1506,423.7031,1496,427.7031,1506,431.7031,1502,427.7031" style="stroke:#181818;stroke-width:1.0;"/><line style="stroke:#181818;stroke-width:1.0;" x1="1500" x2="1809" y1="427.7031" y2="427.7031"/><text fill="#000000" font-family="sans-serif" font-size="13" lengthAdjust="spacing" textLength="131" x="1512" y="422.9609">Ergebnis der Abfrage</text><polygon fill="#181818" points="352,453.0137,342,457.0137,352,461.0137,348,457.0137" style="stroke:#181818;stroke-width:1.0;"/><line style="stroke:#181818;stroke-width:1.0;" x1="346" x2="1494" y1="457.0137" y2="457.0137"/><text fill="#000000" font-family="sans-serif" font-size="13" lengthAdjust="spacing" textLength="131" x="358" y="452.2715">Ergebnis der Abfrage</text><polygon fill="#181818" points="628,482.3242,638,486.3242,628,490.3242,632,486.3242" style="stroke:#181818;stroke-width:1.0;"/><line style="stroke:#181818;stroke-width:1.0;" x1="341" x2="634" y1="486.3242" y2="486.3242"/><text fill="#000000" font-family="sans-serif" font-size="13" lengthAdjust="spacing" textLength="131" x="348" y="481.582">Ergebnis der Abfrage</text><polygon fill="#181818" points="982,535.9453,992,539.9453,982,543.9453,986,539.9453" style="stroke:#181818;stroke-width:1.0;"/><line style="stroke:#181818;stroke-width:1.0;" x1="640" x2="988" y1="539.9453" y2="539.9453"/><text fill="#000000" font-family="sans-serif" font-size="13" lengthAdjust="spacing" textLength="330" x="647" y="535.2031">getObject(Identifier, Node Nummer) Funktionsaufruf</text><polygon fill="#181818" points="1168,565.2559,1178,569.2559,1168,573.2559,1172,569.2559" style="stroke:#181818;stroke-width:1.0;"/><line style="stroke:#181818;stroke-width:1.0;" x1="994" x2="1174" y1="569.2559" y2="569.2559"/><text fill="#000000" font-family="sans-serif" font-size="13" lengthAdjust="spacing" textLength="124" x="1001" y="564.5137">Download der Datei</text><polygon fill="#181818" points="1005,594.5664,995,598.5664,1005,602.5664,1001,598.5664" style="stroke:#181818;stroke-width:1.0;"/><line style="stroke:#181818;stroke-width:1.0;" x1="999" x2="1179" y1="598.5664" y2="598.5664"/><text fill="#000000" font-family="sans-serif" font-size="13" lengthAdjust="spacing" textLength="162" x="1011" y="593.8242">Datei oder Fehlermeldung</text><polygon fill="#181818" points="651,623.877,641,627.877,651,631.877,647,627.877" style="stroke:#181818;stroke-width:1.0;"/><line style="stroke:#181818;stroke-width:1.0;" x1="645" x2="993" y1="627.877" y2="627.877"/><text fill="#000000" font-family="sans-serif" font-size="13" lengthAdjust="spacing" textLength="162" x="657" y="623.1348">Datei oder Fehlermeldung</text><path d="M20,642.877 L82,642.877 L82,650.1875 L72,660.1875 L20,660.1875 L20,642.877 " fill="#EEEEEE" style="stroke:#000000;stroke-width:1.5;"/><rect fill="none" height="268.75" style="stroke:#000000;stroke-width:1.5;" width="1842.5" x="20" y="642.877"/><text fill="#000000" font-family="sans-serif" font-size="13" font-weight="bold" lengthAdjust="spacing" textLength="17" x="35" y="656.4453">alt</text><text fill="#000000" font-family="sans-serif" font-size="11" font-weight="bold" lengthAdjust="spacing" textLength="197" x="97" y="655.5117">[Datei erfolgreich heruntergeladen]</text><polygon fill="#181818" points="352,677.498,342,681.498,352,685.498,348,681.498" style="stroke:#181818;stroke-width:1.0;"/><line style="stroke:#181818;stroke-width:1.0;" x1="346" x2="639" y1="681.498" y2="681.498"/><text fill="#000000" font-family="sans-serif" font-size="13" lengthAdjust="spacing" textLength="33" x="358" y="676.7559">Datei</text><polygon fill="#181818" points="68,706.8086,58,710.8086,68,714.8086,64,710.8086" style="stroke:#181818;stroke-width:1.0;"/><line style="stroke:#181818;stroke-width:1.0;" x1="62" x2="340" y1="710.8086" y2="710.8086"/><text fill="#000000" font-family="sans-serif" font-size="13" lengthAdjust="spacing" textLength="33" x="74" y="706.0664">Datei</text><path d="M575.5,725.8086 L659.5,725.8086 L659.5,733.1191 L649.5,743.1191 L575.5,743.1191 L575.5,725.8086 " fill="#EEEEEE" style="stroke:#000000;stroke-width:1.5;"/><rect fill="none" height="178.8184" style="stroke:#000000;stroke-width:1.5;" width="1277" x="575.5" y="725.8086"/><text fill="#000000" font-family="sans-serif" font-size="13" font-weight="bold" lengthAdjust="spacing" textLength="39" x="590.5" y="739.377">break</text><line style="stroke:#000000;stroke-width:1.0;stroke-dasharray:2.0,2.0;" x1="575.5" x2="1852.5" y1="744.1191" y2="744.1191"/><text fill="#000000" font-family="sans-serif" font-size="11" font-weight="bold" lengthAdjust="spacing" textLength="178" x="580.5" y="754.7539">[Fehler beim Abrufen der Datei]</text><polygon fill="#181818" points="1290,775.3848,1300,779.3848,1290,783.3848,1294,779.3848" style="stroke:#181818;stroke-width:1.0;"/><line style="stroke:#181818;stroke-width:1.0;" x1="640" x2="1296" y1="779.3848" y2="779.3848"/><text fill="#000000" font-family="sans-serif" font-size="13" lengthAdjust="spacing" textLength="353" x="647" y="774.6426">Nachricht zur Markierung des nicht erreichbaren Servers</text><polygon fill="#181818" points="1483,804.6953,1493,808.6953,1483,812.6953,1487,808.6953" style="stroke:#181818;stroke-width:1.0;"/><line style="stroke:#181818;stroke-width:1.0;" x1="1302" x2="1489" y1="808.6953" y2="808.6953"/><text fill="#000000" font-family="sans-serif" font-size="13" lengthAdjust="spacing" textLength="169" x="1309" y="803.9531">Weiterleitung an DB-Server</text><polygon fill="#181818" points="1798,834.0059,1808,838.0059,1798,842.0059,1802,838.0059" style="stroke:#181818;stroke-width:1.0;"/><line style="stroke:#181818;stroke-width:1.0;" x1="1495" x2="1804" y1="838.0059" y2="838.0059"/><text fill="#000000" font-family="sans-serif" font-size="13" lengthAdjust="spacing" textLength="264" x="1502" y="833.2637">Markierung des nicht erreichbaren Servers</text><polygon fill="#181818" points="1506,863.3164,1496,867.3164,1506,871.3164,1502,867.3164" style="stroke:#181818;stroke-width:1.0;"/><line style="stroke:#181818;stroke-width:1.0;" x1="1500" x2="1809" y1="867.3164" y2="867.3164"/><text fill="#000000" font-family="sans-serif" font-size="13" lengthAdjust="spacing" textLength="153" x="1512" y="862.5742">Ergebnis der Markierung</text><polygon fill="#181818" points="1313,892.627,1303,896.627,1313,900.627,1309,896.627" style="stroke:#181818;stroke-width:1.0;"/><line style="stroke:#181818;stroke-width:1.0;" x1="1307" x2="1494" y1="896.627" y2="896.627"/><text fill="#000000" font-family="sans-serif" font-size="13" lengthAdjust="spacing" textLength="153" x="1319" y="891.8848">Ergebnis der Markierung</text><!--SRC=[lLJ1Rjim3BtxAuYUMg11xpaCQ9O5wA7fOOUTvPXsjCXIGClRsc_Pf-pM7nj5INQSELjts0pOaCn7FlAHajVU8AoLHmrxfDvw9ACgj4LnLEJrJX-LzN3rtcYq_WfK1t4vDMyRRR-9LLPJuqPrNjVFYuz8Nv045PTJsAEs3q-B4wAjg_0oC5W59jkmEqDXrwa65ojoXyGQb-SmhzQhqzpMgrbImKL2MHP5J1KMxsBHooJZ0wl7zMeaK1RkAlVL6gSgg33NtHNY43pZZtbNr1Ojkr520R-CCjoSz6EalkzhwckuQz1l625aGradVBcu9Nn27NhDtzusWMw05naK76AnJ53Mn79AEYbPMpjgbTUEqomYRahnWHeihUx4AGMO14_9p-8kIJHXlIn46wOYMV-f6CFutO9Yul2hqlb8yOGq_ZzeCui2VWhZt15UlvT8HthzKMFCDnSN82UKmu5R0W_IK_aPT_vw7CfRGS2sRrka6zZqzX3wq2dHN8AD8KIlh0rtRpm6QO04Fo3E-QD-Bg0tk3T8BPgAcpF3yYON-IZZ4mgfTgOXrBlzSEyr66y-ICyllHZJbYHo4-8zS6uk2TL1TcWwJ1b1YRhb1h5SwMXFdKRAU5SjOQjsU-8iFRpqF6oA3ZgasyXGMp4WIHsb8ewPXpn7Z77UFEtPRMxg_vxyZuC_XfnbpYBypWTjLOJt9m00]--></g></svg>