<?xml version="1.0" encoding="us-ascii" standalone="no"?><svg xmlns="http://www.w3.org/2000/svg" xmlns:xlink="http://www.w3.org/1999/xlink" contentStyleType="text/css" height="557px" preserveAspectRatio="none" style="width:1026px;height:557px;background:#FFFFFF;" version="1.1" viewBox="0 0 1026 557" width="1026px" zoomAndPan="magnify"><defs/><g><text fill="#000000" font-family="sans-serif" font-size="14" font-weight="bold" lengthAdjust="spacing" textLength="139" x="444.5" y="28.5352">Benutzer einloggen</text><rect fill="none" height="355.3262" style="stroke:#000000;stroke-width:1.5;" width="1009" x="10" y="149.5977"/><rect fill="none" height="191.8184" style="stroke:#000000;stroke-width:1.5;" width="930.5" x="20" y="232.5293"/><line style="stroke:#181818;stroke-width:0.5;stroke-dasharray:5.0,5.0;" x1="57" x2="57" y1="73.9766" y2="521.9238"/><line style="stroke:#181818;stroke-width:0.5;stroke-dasharray:5.0,5.0;" x1="447.5" x2="447.5" y1="73.9766" y2="521.9238"/><line style="stroke:#181818;stroke-width:0.5;stroke-dasharray:5.0,5.0;" x1="539.5" x2="539.5" y1="73.9766" y2="521.9238"/><line style="stroke:#181818;stroke-width:0.5;stroke-dasharray:5.0,5.0;" x1="667.5" x2="667.5" y1="73.9766" y2="521.9238"/><line style="stroke:#181818;stroke-width:0.5;stroke-dasharray:5.0,5.0;" x1="798.5" x2="798.5" y1="73.9766" y2="521.9238"/><line style="stroke:#181818;stroke-width:0.5;stroke-dasharray:5.0,5.0;" x1="976" x2="976" y1="73.9766" y2="521.9238"/><rect fill="#E2E2F0" height="30.4883" rx="2.5" ry="2.5" style="stroke:#181818;stroke-width:0.5;" width="54" x="30" y="42.4883"/><text fill="#000000" font-family="sans-serif" font-size="14" lengthAdjust="spacing" textLength="40" x="37" y="63.0234">Client</text><rect fill="#E2E2F0" height="30.4883" rx="2.5" ry="2.5" style="stroke:#181818;stroke-width:0.5;" width="54" x="30" y="520.9238"/><text fill="#000000" font-family="sans-serif" font-size="14" lengthAdjust="spacing" textLength="40" x="37" y="541.459">Client</text><rect fill="#E2E2F0" height="30.4883" rx="2.5" ry="2.5" style="stroke:#181818;stroke-width:0.5;" width="55" x="420.5" y="42.4883"/><text fill="#000000" font-family="sans-serif" font-size="14" lengthAdjust="spacing" textLength="41" x="427.5" y="63.0234">Nginx</text><rect fill="#E2E2F0" height="30.4883" rx="2.5" ry="2.5" style="stroke:#181818;stroke-width:0.5;" width="55" x="420.5" y="520.9238"/><text fill="#000000" font-family="sans-serif" font-size="14" lengthAdjust="spacing" textLength="41" x="427.5" y="541.459">Nginx</text><rect fill="#E2E2F0" height="30.4883" rx="2.5" ry="2.5" style="stroke:#181818;stroke-width:0.5;" width="109" x="485.5" y="42.4883"/><text fill="#000000" font-family="sans-serif" font-size="14" lengthAdjust="spacing" textLength="95" x="492.5" y="63.0234">Fastify-Server</text><rect fill="#E2E2F0" height="30.4883" rx="2.5" ry="2.5" style="stroke:#181818;stroke-width:0.5;" width="109" x="485.5" y="520.9238"/><text fill="#000000" font-family="sans-serif" font-size="14" lengthAdjust="spacing" textLength="95" x="492.5" y="541.459">Fastify-Server</text><rect fill="#E2E2F0" height="30.4883" rx="2.5" ry="2.5" style="stroke:#181818;stroke-width:0.5;" width="126" x="604.5" y="42.4883"/><text fill="#000000" font-family="sans-serif" font-size="14" lengthAdjust="spacing" textLength="112" x="611.5" y="63.0234">Message-Broker</text><rect fill="#E2E2F0" height="30.4883" rx="2.5" ry="2.5" style="stroke:#181818;stroke-width:0.5;" width="126" x="604.5" y="520.9238"/><text fill="#000000" font-family="sans-serif" font-size="14" lengthAdjust="spacing" textLength="112" x="611.5" y="541.459">Message-Broker</text><rect fill="#E2E2F0" height="30.4883" rx="2.5" ry="2.5" style="stroke:#181818;stroke-width:0.5;" width="116" x="740.5" y="42.4883"/><text fill="#000000" font-family="sans-serif" font-size="14" lengthAdjust="spacing" textLength="102" x="747.5" y="63.0234">MetaDB-Server</text><rect fill="#E2E2F0" height="30.4883" rx="2.5" ry="2.5" style="stroke:#181818;stroke-width:0.5;" width="116" x="740.5" y="520.9238"/><text fill="#000000" font-family="sans-serif" font-size="14" lengthAdjust="spacing" textLength="102" x="747.5" y="541.459">MetaDB-Server</text><rect fill="#E2E2F0" height="30.4883" rx="2.5" ry="2.5" style="stroke:#181818;stroke-width:0.5;" width="65" x="944" y="42.4883"/><text fill="#000000" font-family="sans-serif" font-size="14" lengthAdjust="spacing" textLength="51" x="951" y="63.0234">MetaDB</text><rect fill="#E2E2F0" height="30.4883" rx="2.5" ry="2.5" style="stroke:#181818;stroke-width:0.5;" width="65" x="944" y="520.9238"/><text fill="#000000" font-family="sans-serif" font-size="14" lengthAdjust="spacing" textLength="51" x="951" y="541.459">MetaDB</text><polygon fill="#181818" points="436,101.2871,446,105.2871,436,109.2871,440,105.2871" style="stroke:#181818;stroke-width:1.0;"/><line style="stroke:#181818;stroke-width:1.0;" x1="57" x2="442" y1="105.2871" y2="105.2871"/><text fill="#000000" font-family="sans-serif" font-size="13" lengthAdjust="spacing" textLength="367" x="64" y="100.5449">Benutzerdaten (username, password) an /login des Servers</text><polygon fill="#181818" points="786.5,130.5977,796.5,134.5977,786.5,138.5977,790.5,134.5977" style="stroke:#181818;stroke-width:1.0;"/><line style="stroke:#181818;stroke-width:1.0;" x1="448" x2="792.5" y1="134.5977" y2="134.5977"/><text fill="#000000" font-family="sans-serif" font-size="13" lengthAdjust="spacing" textLength="206" x="455" y="129.8555">Weiterleitung an einen der Server</text><path d="M10,149.5977 L72,149.5977 L72,156.9082 L62,166.9082 L10,166.9082 L10,149.5977 " fill="#EEEEEE" style="stroke:#000000;stroke-width:1.5;"/><rect fill="none" height="355.3262" style="stroke:#000000;stroke-width:1.5;" width="1009" x="10" y="149.5977"/><text fill="#000000" font-family="sans-serif" font-size="13" font-weight="bold" lengthAdjust="spacing" textLength="17" x="25" y="163.166">alt</text><text fill="#000000" font-family="sans-serif" font-size="11" font-weight="bold" lengthAdjust="spacing" textLength="131" x="87" y="162.2324">[Parameter vollst&#228;ndig]</text><polygon fill="#181818" points="964.5,184.2188,974.5,188.2188,964.5,192.2188,968.5,188.2188" style="stroke:#181818;stroke-width:1.0;"/><line style="stroke:#181818;stroke-width:1.0;" x1="798.5" x2="970.5" y1="188.2188" y2="188.2188"/><text fill="#000000" font-family="sans-serif" font-size="13" lengthAdjust="spacing" textLength="154" x="805.5" y="183.4766">Abfrage der Nutzerdaten</text><polygon fill="#181818" points="809.5,213.5293,799.5,217.5293,809.5,221.5293,805.5,217.5293" style="stroke:#181818;stroke-width:1.0;"/><line style="stroke:#181818;stroke-width:1.0;" x1="803.5" x2="975.5" y1="217.5293" y2="217.5293"/><text fill="#000000" font-family="sans-serif" font-size="13" lengthAdjust="spacing" textLength="131" x="815.5" y="212.7871">Ergebnis der Abfrage</text><path d="M20,232.5293 L82,232.5293 L82,239.8398 L72,249.8398 L20,249.8398 L20,232.5293 " fill="#EEEEEE" style="stroke:#000000;stroke-width:1.5;"/><rect fill="none" height="191.8184" style="stroke:#000000;stroke-width:1.5;" width="930.5" x="20" y="232.5293"/><text fill="#000000" font-family="sans-serif" font-size="13" font-weight="bold" lengthAdjust="spacing" textLength="17" x="35" y="246.0977">alt</text><text fill="#000000" font-family="sans-serif" font-size="11" font-weight="bold" lengthAdjust="spacing" textLength="172" x="97" y="245.1641">[Authentifizierung erfolgreich]</text><line style="stroke:#181818;stroke-width:1.0;" x1="798.5" x2="840.5" y1="271.1504" y2="271.1504"/><line style="stroke:#181818;stroke-width:1.0;" x1="840.5" x2="840.5" y1="271.1504" y2="284.1504"/><line style="stroke:#181818;stroke-width:1.0;" x1="799.5" x2="840.5" y1="284.1504" y2="284.1504"/><polygon fill="#181818" points="809.5,280.1504,799.5,284.1504,809.5,288.1504,805.5,284.1504" style="stroke:#181818;stroke-width:1.0;"/><text fill="#000000" font-family="sans-serif" font-size="13" lengthAdjust="spacing" textLength="133" x="805.5" y="266.4082">Erstellung JWT Token</text><polygon fill="#181818" points="459,309.4609,449,313.4609,459,317.4609,455,313.4609" style="stroke:#181818;stroke-width:1.0;"/><line style="stroke:#181818;stroke-width:1.0;" x1="453" x2="797.5" y1="313.4609" y2="313.4609"/><text fill="#000000" font-family="sans-serif" font-size="13" lengthAdjust="spacing" textLength="104" x="465" y="308.7188">Token R&#252;ckgabe</text><polygon fill="#181818" points="68,338.7715,58,342.7715,68,346.7715,64,342.7715" style="stroke:#181818;stroke-width:1.0;"/><line style="stroke:#181818;stroke-width:1.0;" x1="62" x2="447" y1="342.7715" y2="342.7715"/><text fill="#000000" font-family="sans-serif" font-size="13" lengthAdjust="spacing" textLength="104" x="74" y="338.0293">Token R&#252;ckgabe</text><line style="stroke:#000000;stroke-width:1.0;stroke-dasharray:2.0,2.0;" x1="20" x2="950.5" y1="351.7715" y2="351.7715"/><text fill="#000000" font-family="sans-serif" font-size="11" font-weight="bold" lengthAdjust="spacing" textLength="194" x="25" y="362.4063">[Authentifizierung fehlgeschlagen]</text><polygon fill="#181818" points="459,383.0371,449,387.0371,459,391.0371,455,387.0371" style="stroke:#181818;stroke-width:1.0;"/><line style="stroke:#181818;stroke-width:1.0;" x1="453" x2="797.5" y1="387.0371" y2="387.0371"/><text fill="#000000" font-family="sans-serif" font-size="13" lengthAdjust="spacing" textLength="96" x="465" y="382.2949">Fehlerr&#252;ckgabe</text><polygon fill="#181818" points="68,412.3477,58,416.3477,68,420.3477,64,416.3477" style="stroke:#181818;stroke-width:1.0;"/><line style="stroke:#181818;stroke-width:1.0;" x1="62" x2="447" y1="416.3477" y2="416.3477"/><text fill="#000000" font-family="sans-serif" font-size="13" lengthAdjust="spacing" textLength="96" x="74" y="411.6055">Fehlerr&#252;ckgabe</text><line style="stroke:#000000;stroke-width:1.0;stroke-dasharray:2.0,2.0;" x1="10" x2="1019" y1="432.3477" y2="432.3477"/><text fill="#000000" font-family="sans-serif" font-size="11" font-weight="bold" lengthAdjust="spacing" textLength="145" x="15" y="442.9824">[Parameter unvollst&#228;ndig]</text><polygon fill="#181818" points="459,463.6133,449,467.6133,459,471.6133,455,467.6133" style="stroke:#181818;stroke-width:1.0;"/><line style="stroke:#181818;stroke-width:1.0;" x1="453" x2="797.5" y1="467.6133" y2="467.6133"/><text fill="#000000" font-family="sans-serif" font-size="13" lengthAdjust="spacing" textLength="96" x="465" y="462.8711">Fehlerr&#252;ckgabe</text><polygon fill="#181818" points="68,492.9238,58,496.9238,68,500.9238,64,496.9238" style="stroke:#181818;stroke-width:1.0;"/><line style="stroke:#181818;stroke-width:1.0;" x1="62" x2="447" y1="496.9238" y2="496.9238"/><text fill="#000000" font-family="sans-serif" font-size="13" lengthAdjust="spacing" textLength="96" x="74" y="492.1816">Fehlerr&#252;ckgabe</text><!--SRC=[ZL7DJi904BxlKqmuQIBnpi44L0uc4gCad9TskfsuJidi5fNdyJ6yyMBkRe4MBS4Ucadd- -itdhn5c23NVeC2I6mhOv2LMcdnbD5AiuV1hILaFm3je1cFrpD3_96sQJfUJhNpL7mENr3MA0dLZCUmHtHE6nnEf7hTmPhnDyphkqbNhFdIBnat7P1IJNeOtZH9HuTVpxL7XelQeR1-mojOQUVUAyalGJDSXrQ88STzTgSIFmfr_KUmGF8eDhnhDf4QAiN8bFrVAsqzF6a9BW49wyfQvxTVd9DH49wkNgi_Wl6oa51GafgrcJkSlsdknU2IoINIJY0HOePnxSjG1XMq8PGO5wMeh16ah4oeqt5Q0-VHsaX-MCnX7Wx69wcxoXC8dhVVsQlHIpp03uqsH-e7edNOaxp0qXfqMMcrEPzW6j0eSZv17n0vLoh5Q8zOyzapzbk3-fTlzFm1]--></g></svg>