<?xml version="1.0" encoding="us-ascii" standalone="no"?><svg xmlns="http://www.w3.org/2000/svg" xmlns:xlink="http://www.w3.org/1999/xlink" contentStyleType="text/css" height="674px" preserveAspectRatio="none" style="width:1183px;height:674px;background:#FFFFFF;" version="1.1" viewBox="0 0 1183 674" width="1183px" zoomAndPan="magnify"><defs/><g><text fill="#000000" font-family="sans-serif" font-size="14" font-weight="bold" lengthAdjust="spacing" textLength="139" x="523.25" y="28.5352">Benutzer einloggen</text><rect fill="none" height="472.5684" style="stroke:#000000;stroke-width:1.5;" width="1166.5" x="10" y="149.5977"/><rect fill="none" height="191.8184" style="stroke:#000000;stroke-width:1.5;" width="810" x="20" y="349.7715"/><line style="stroke:#181818;stroke-width:0.5;stroke-dasharray:5.0,5.0;" x1="57" x2="57" y1="73.9766" y2="639.166"/><line style="stroke:#181818;stroke-width:0.5;stroke-dasharray:5.0,5.0;" x1="447.5" x2="447.5" y1="73.9766" y2="639.166"/><line style="stroke:#181818;stroke-width:0.5;stroke-dasharray:5.0,5.0;" x1="677.5" x2="677.5" y1="73.9766" y2="639.166"/><line style="stroke:#181818;stroke-width:0.5;stroke-dasharray:5.0,5.0;" x1="825" x2="825" y1="73.9766" y2="639.166"/><line style="stroke:#181818;stroke-width:0.5;stroke-dasharray:5.0,5.0;" x1="956" x2="956" y1="73.9766" y2="639.166"/><line style="stroke:#181818;stroke-width:0.5;stroke-dasharray:5.0,5.0;" x1="1133.5" x2="1133.5" y1="73.9766" y2="639.166"/><rect fill="#E2E2F0" height="30.4883" rx="2.5" ry="2.5" style="stroke:#181818;stroke-width:0.5;" width="54" x="30" y="42.4883"/><text fill="#000000" font-family="sans-serif" font-size="14" lengthAdjust="spacing" textLength="40" x="37" y="63.0234">Client</text><rect fill="#E2E2F0" height="30.4883" rx="2.5" ry="2.5" style="stroke:#181818;stroke-width:0.5;" width="54" x="30" y="638.166"/><text fill="#000000" font-family="sans-serif" font-size="14" lengthAdjust="spacing" textLength="40" x="37" y="658.7012">Client</text><rect fill="#E2E2F0" height="30.4883" rx="2.5" ry="2.5" style="stroke:#181818;stroke-width:0.5;" width="55" x="420.5" y="42.4883"/><text fill="#000000" font-family="sans-serif" font-size="14" lengthAdjust="spacing" textLength="41" x="427.5" y="63.0234">Nginx</text><rect fill="#E2E2F0" height="30.4883" rx="2.5" ry="2.5" style="stroke:#181818;stroke-width:0.5;" width="55" x="420.5" y="638.166"/><text fill="#000000" font-family="sans-serif" font-size="14" lengthAdjust="spacing" textLength="41" x="427.5" y="658.7012">Nginx</text><rect fill="#E2E2F0" height="30.4883" rx="2.5" ry="2.5" style="stroke:#181818;stroke-width:0.5;" width="109" x="623.5" y="42.4883"/><text fill="#000000" font-family="sans-serif" font-size="14" lengthAdjust="spacing" textLength="95" x="630.5" y="63.0234">Fastify-Server</text><rect fill="#E2E2F0" height="30.4883" rx="2.5" ry="2.5" style="stroke:#181818;stroke-width:0.5;" width="109" x="623.5" y="638.166"/><text fill="#000000" font-family="sans-serif" font-size="14" lengthAdjust="spacing" textLength="95" x="630.5" y="658.7012">Fastify-Server</text><rect fill="#E2E2F0" height="30.4883" rx="2.5" ry="2.5" style="stroke:#181818;stroke-width:0.5;" width="126" x="762" y="42.4883"/><text fill="#000000" font-family="sans-serif" font-size="14" lengthAdjust="spacing" textLength="112" x="769" y="63.0234">Message-Broker</text><rect fill="#E2E2F0" height="30.4883" rx="2.5" ry="2.5" style="stroke:#181818;stroke-width:0.5;" width="126" x="762" y="638.166"/><text fill="#000000" font-family="sans-serif" font-size="14" lengthAdjust="spacing" textLength="112" x="769" y="658.7012">Message-Broker</text><rect fill="#E2E2F0" height="30.4883" rx="2.5" ry="2.5" style="stroke:#181818;stroke-width:0.5;" width="116" x="898" y="42.4883"/><text fill="#000000" font-family="sans-serif" font-size="14" lengthAdjust="spacing" textLength="102" x="905" y="63.0234">MetaDB-Server</text><rect fill="#E2E2F0" height="30.4883" rx="2.5" ry="2.5" style="stroke:#181818;stroke-width:0.5;" width="116" x="898" y="638.166"/><text fill="#000000" font-family="sans-serif" font-size="14" lengthAdjust="spacing" textLength="102" x="905" y="658.7012">MetaDB-Server</text><rect fill="#E2E2F0" height="30.4883" rx="2.5" ry="2.5" style="stroke:#181818;stroke-width:0.5;" width="65" x="1101.5" y="42.4883"/><text fill="#000000" font-family="sans-serif" font-size="14" lengthAdjust="spacing" textLength="51" x="1108.5" y="63.0234">MetaDB</text><rect fill="#E2E2F0" height="30.4883" rx="2.5" ry="2.5" style="stroke:#181818;stroke-width:0.5;" width="65" x="1101.5" y="638.166"/><text fill="#000000" font-family="sans-serif" font-size="14" lengthAdjust="spacing" textLength="51" x="1108.5" y="658.7012">MetaDB</text><polygon fill="#181818" points="436,101.2871,446,105.2871,436,109.2871,440,105.2871" style="stroke:#181818;stroke-width:1.0;"/><line style="stroke:#181818;stroke-width:1.0;" x1="57" x2="442" y1="105.2871" y2="105.2871"/><text fill="#000000" font-family="sans-serif" font-size="13" lengthAdjust="spacing" textLength="367" x="64" y="100.5449">Benutzerdaten (username, password) an /login des Servers</text><polygon fill="#181818" points="666,130.5977,676,134.5977,666,138.5977,670,134.5977" style="stroke:#181818;stroke-width:1.0;"/><line style="stroke:#181818;stroke-width:1.0;" x1="448" x2="672" y1="134.5977" y2="134.5977"/><text fill="#000000" font-family="sans-serif" font-size="13" lengthAdjust="spacing" textLength="206" x="455" y="129.8555">Weiterleitung an einen der Server</text><path d="M10,149.5977 L72,149.5977 L72,156.9082 L62,166.9082 L10,166.9082 L10,149.5977 " fill="#EEEEEE" style="stroke:#000000;stroke-width:1.5;"/><rect fill="none" height="472.5684" style="stroke:#000000;stroke-width:1.5;" width="1166.5" x="10" y="149.5977"/><text fill="#000000" font-family="sans-serif" font-size="13" font-weight="bold" lengthAdjust="spacing" textLength="17" x="25" y="163.166">alt</text><text fill="#000000" font-family="sans-serif" font-size="11" font-weight="bold" lengthAdjust="spacing" textLength="131" x="87" y="162.2324">[Parameter vollst&#228;ndig]</text><polygon fill="#181818" points="459,184.2188,449,188.2188,459,192.2188,455,188.2188" style="stroke:#181818;stroke-width:1.0;"/><line style="stroke:#181818;stroke-width:1.0;" x1="453" x2="677" y1="188.2188" y2="188.2188"/><text fill="#000000" font-family="sans-serif" font-size="13" lengthAdjust="spacing" textLength="156" x="465" y="183.4766">Nutzer Authentifizierung</text><polygon fill="#181818" points="944,213.5293,954,217.5293,944,221.5293,948,217.5293" style="stroke:#181818;stroke-width:1.0;"/><line style="stroke:#181818;stroke-width:1.0;" x1="448" x2="950" y1="217.5293" y2="217.5293"/><text fill="#000000" font-family="sans-serif" font-size="13" lengthAdjust="spacing" textLength="199" x="455" y="212.7871">Weiterleitung an MetaDB-Server</text><polygon fill="#181818" points="1122,242.8398,1132,246.8398,1122,250.8398,1126,246.8398" style="stroke:#181818;stroke-width:1.0;"/><line style="stroke:#181818;stroke-width:1.0;" x1="956" x2="1128" y1="246.8398" y2="246.8398"/><text fill="#000000" font-family="sans-serif" font-size="13" lengthAdjust="spacing" textLength="154" x="963" y="242.0977">Abfrage der Nutzerdaten</text><polygon fill="#181818" points="967,272.1504,957,276.1504,967,280.1504,963,276.1504" style="stroke:#181818;stroke-width:1.0;"/><line style="stroke:#181818;stroke-width:1.0;" x1="961" x2="1133" y1="276.1504" y2="276.1504"/><text fill="#000000" font-family="sans-serif" font-size="13" lengthAdjust="spacing" textLength="131" x="973" y="271.4082">Ergebnis der Abfrage</text><polygon fill="#181818" points="459,301.4609,449,305.4609,459,309.4609,455,305.4609" style="stroke:#181818;stroke-width:1.0;"/><line style="stroke:#181818;stroke-width:1.0;" x1="453" x2="955" y1="305.4609" y2="305.4609"/><text fill="#000000" font-family="sans-serif" font-size="13" lengthAdjust="spacing" textLength="131" x="465" y="300.7188">Ergebnis der Abfrage</text><polygon fill="#181818" points="666,330.7715,676,334.7715,666,338.7715,670,334.7715" style="stroke:#181818;stroke-width:1.0;"/><line style="stroke:#181818;stroke-width:1.0;" x1="448" x2="672" y1="334.7715" y2="334.7715"/><text fill="#000000" font-family="sans-serif" font-size="13" lengthAdjust="spacing" textLength="131" x="455" y="330.0293">Ergebnis der Abfrage</text><path d="M20,349.7715 L82,349.7715 L82,357.082 L72,367.082 L20,367.082 L20,349.7715 " fill="#EEEEEE" style="stroke:#000000;stroke-width:1.5;"/><rect fill="none" height="191.8184" style="stroke:#000000;stroke-width:1.5;" width="810" x="20" y="349.7715"/><text fill="#000000" font-family="sans-serif" font-size="13" font-weight="bold" lengthAdjust="spacing" textLength="17" x="35" y="363.3398">alt</text><text fill="#000000" font-family="sans-serif" font-size="11" font-weight="bold" lengthAdjust="spacing" textLength="172" x="97" y="362.4063">[Authentifizierung erfolgreich]</text><line style="stroke:#181818;stroke-width:1.0;" x1="678" x2="720" y1="388.3926" y2="388.3926"/><line style="stroke:#181818;stroke-width:1.0;" x1="720" x2="720" y1="388.3926" y2="401.3926"/><line style="stroke:#181818;stroke-width:1.0;" x1="679" x2="720" y1="401.3926" y2="401.3926"/><polygon fill="#181818" points="689,397.3926,679,401.3926,689,405.3926,685,401.3926" style="stroke:#181818;stroke-width:1.0;"/><text fill="#000000" font-family="sans-serif" font-size="13" lengthAdjust="spacing" textLength="133" x="685" y="383.6504">Erstellung JWT Token</text><polygon fill="#181818" points="459,426.7031,449,430.7031,459,434.7031,455,430.7031" style="stroke:#181818;stroke-width:1.0;"/><line style="stroke:#181818;stroke-width:1.0;" x1="453" x2="677" y1="430.7031" y2="430.7031"/><text fill="#000000" font-family="sans-serif" font-size="13" lengthAdjust="spacing" textLength="104" x="465" y="425.9609">Token R&#252;ckgabe</text><polygon fill="#181818" points="68,456.0137,58,460.0137,68,464.0137,64,460.0137" style="stroke:#181818;stroke-width:1.0;"/><line style="stroke:#181818;stroke-width:1.0;" x1="62" x2="447" y1="460.0137" y2="460.0137"/><text fill="#000000" font-family="sans-serif" font-size="13" lengthAdjust="spacing" textLength="104" x="74" y="455.2715">Token R&#252;ckgabe</text><line style="stroke:#000000;stroke-width:1.0;stroke-dasharray:2.0,2.0;" x1="20" x2="830" y1="469.0137" y2="469.0137"/><text fill="#000000" font-family="sans-serif" font-size="11" font-weight="bold" lengthAdjust="spacing" textLength="194" x="25" y="479.6484">[Authentifizierung fehlgeschlagen]</text><polygon fill="#181818" points="459,500.2793,449,504.2793,459,508.2793,455,504.2793" style="stroke:#181818;stroke-width:1.0;"/><line style="stroke:#181818;stroke-width:1.0;" x1="453" x2="677" y1="504.2793" y2="504.2793"/><text fill="#000000" font-family="sans-serif" font-size="13" lengthAdjust="spacing" textLength="96" x="465" y="499.5371">Fehlerr&#252;ckgabe</text><polygon fill="#181818" points="68,529.5898,58,533.5898,68,537.5898,64,533.5898" style="stroke:#181818;stroke-width:1.0;"/><line style="stroke:#181818;stroke-width:1.0;" x1="62" x2="447" y1="533.5898" y2="533.5898"/><text fill="#000000" font-family="sans-serif" font-size="13" lengthAdjust="spacing" textLength="96" x="74" y="528.8477">Fehlerr&#252;ckgabe</text><line style="stroke:#000000;stroke-width:1.0;stroke-dasharray:2.0,2.0;" x1="10" x2="1176.5" y1="549.5898" y2="549.5898"/><text fill="#000000" font-family="sans-serif" font-size="11" font-weight="bold" lengthAdjust="spacing" textLength="145" x="15" y="560.2246">[Parameter unvollst&#228;ndig]</text><polygon fill="#181818" points="459,580.8555,449,584.8555,459,588.8555,455,584.8555" style="stroke:#181818;stroke-width:1.0;"/><line style="stroke:#181818;stroke-width:1.0;" x1="453" x2="677" y1="584.8555" y2="584.8555"/><text fill="#000000" font-family="sans-serif" font-size="13" lengthAdjust="spacing" textLength="96" x="465" y="580.1133">Fehlerr&#252;ckgabe</text><polygon fill="#181818" points="68,610.166,58,614.166,68,618.166,64,614.166" style="stroke:#181818;stroke-width:1.0;"/><line style="stroke:#181818;stroke-width:1.0;" x1="62" x2="447" y1="614.166" y2="614.166"/><text fill="#000000" font-family="sans-serif" font-size="13" lengthAdjust="spacing" textLength="96" x="74" y="609.4238">Fehlerr&#252;ckgabe</text><!--SRC=[ZL91JiCm4Bpx5QkUGABYtWDI2_I0H8MWKizkid6icasrTWhqFJo3Mp-6OwTfqgQK7AALTsPsF5wddK6O89LkYmoeoHHA8GcnbknqejUI70pkZKPo0v0MOjbjpvIcpz0DLRSvbTRfx6luXhn13gXOTc7FQArKE9nmiQfXiJo6EVamQOl5atx9gjC22H7Tm_0kEXqrLq-bGuAhqYAJVCSRM4jhFmfEhq4ItFfKD46AU-zM17ub50z6i43ja8t_bwGgaWyJAmxlxokaSV0YsUjx96mAOwpRVLEgbG3_HLZBt2o-ohXqkNUjCxtLo5uze1i3xG1wR7GI2ymsuI0mWl4oO_y4mVBia4gBSphkaHKkITj0gWLwXzHNEei_oVCiiahn9190pWgZ67MI1rGtq8EeTMXCHNXQp67k5unwuBNPq8RNtK-oKdA93R3n6jUf7uZ6Oe_F37EZq2QvaUglsLEFG-RBi_k0IAaGmS1XtKgwl717MY3-DR6QzWi0]--></g></svg>