<?xml version="1.0" encoding="us-ascii" standalone="no"?><svg xmlns="http://www.w3.org/2000/svg" xmlns:xlink="http://www.w3.org/1999/xlink" contentStyleType="text/css" height="1299px" preserveAspectRatio="none" style="width:2208px;height:1299px;background:#FFFFFF;" version="1.1" viewBox="0 0 2208 1299" width="2208px" zoomAndPan="magnify"><defs/><g><text fill="#000000" font-family="sans-serif" font-size="14" font-weight="bold" lengthAdjust="spacing" textLength="116" x="1047.25" y="28.5352">Datei hochladen</text><rect fill="none" height="1097.2891" style="stroke:#000000;stroke-width:1.5;" width="2191.5" x="10" y="149.5977"/><rect fill="none" height="1021.7129" style="stroke:#000000;stroke-width:1.5;" width="2171.5" x="20" y="173.9082"/><rect fill="none" height="946.1367" style="stroke:#000000;stroke-width:1.5;" width="2151.5" x="30" y="198.2188"/><rect fill="none" height="828.25" style="stroke:#000000;stroke-width:1.5;" width="2131.5" x="40" y="264.8398"/><rect fill="none" height="752.6738" style="stroke:#000000;stroke-width:1.5;" width="2111.5" x="50" y="289.1504"/><rect fill="none" height="325.3711" style="stroke:#000000;stroke-width:1.5;" width="2091.5" x="60" y="665.1875"/><line style="stroke:#181818;stroke-width:0.5;stroke-dasharray:5.0,5.0;" x1="97" x2="97" y1="73.9766" y2="1263.8867"/><line style="stroke:#181818;stroke-width:0.5;stroke-dasharray:5.0,5.0;" x1="324.5" x2="324.5" y1="73.9766" y2="1263.8867"/><line style="stroke:#181818;stroke-width:0.5;stroke-dasharray:5.0,5.0;" x1="754.5" x2="754.5" y1="73.9766" y2="1263.8867"/><line style="stroke:#181818;stroke-width:0.5;stroke-dasharray:5.0,5.0;" x1="1095" x2="1095" y1="73.9766" y2="1263.8867"/><line style="stroke:#181818;stroke-width:0.5;stroke-dasharray:5.0,5.0;" x1="1306" x2="1306" y1="73.9766" y2="1263.8867"/><line style="stroke:#181818;stroke-width:0.5;stroke-dasharray:5.0,5.0;" x1="1428" x2="1428" y1="73.9766" y2="1263.8867"/><line style="stroke:#181818;stroke-width:0.5;stroke-dasharray:5.0,5.0;" x1="1819" x2="1819" y1="73.9766" y2="1263.8867"/><line style="stroke:#181818;stroke-width:0.5;stroke-dasharray:5.0,5.0;" x1="2108.5" x2="2108.5" y1="73.9766" y2="1263.8867"/><rect fill="#E2E2F0" height="30.4883" rx="2.5" ry="2.5" style="stroke:#181818;stroke-width:0.5;" width="54" x="70" y="42.4883"/><text fill="#000000" font-family="sans-serif" font-size="14" lengthAdjust="spacing" textLength="40" x="77" y="63.0234">Client</text><rect fill="#E2E2F0" height="30.4883" rx="2.5" ry="2.5" style="stroke:#181818;stroke-width:0.5;" width="54" x="70" y="1262.8867"/><text fill="#000000" font-family="sans-serif" font-size="14" lengthAdjust="spacing" textLength="40" x="77" y="1283.4219">Client</text><rect fill="#E2E2F0" height="30.4883" rx="2.5" ry="2.5" style="stroke:#181818;stroke-width:0.5;" width="55" x="297.5" y="42.4883"/><text fill="#000000" font-family="sans-serif" font-size="14" lengthAdjust="spacing" textLength="41" x="304.5" y="63.0234">Nginx</text><rect fill="#E2E2F0" height="30.4883" rx="2.5" ry="2.5" style="stroke:#181818;stroke-width:0.5;" width="55" x="297.5" y="1262.8867"/><text fill="#000000" font-family="sans-serif" font-size="14" lengthAdjust="spacing" textLength="41" x="304.5" y="1283.4219">Nginx</text><rect fill="#E2E2F0" height="30.4883" rx="2.5" ry="2.5" style="stroke:#181818;stroke-width:0.5;" width="109" x="700.5" y="42.4883"/><text fill="#000000" font-family="sans-serif" font-size="14" lengthAdjust="spacing" textLength="95" x="707.5" y="63.0234">Fastify-Server</text><rect fill="#E2E2F0" height="30.4883" rx="2.5" ry="2.5" style="stroke:#181818;stroke-width:0.5;" width="109" x="700.5" y="1262.8867"/><text fill="#000000" font-family="sans-serif" font-size="14" lengthAdjust="spacing" textLength="95" x="707.5" y="1283.4219">Fastify-Server</text><rect fill="#E2E2F0" height="30.4883" rx="2.5" ry="2.5" style="stroke:#181818;stroke-width:0.5;" width="102" x="1044" y="42.4883"/><text fill="#000000" font-family="sans-serif" font-size="14" lengthAdjust="spacing" textLength="88" x="1051" y="63.0234">MinIO-Client</text><rect fill="#E2E2F0" height="30.4883" rx="2.5" ry="2.5" style="stroke:#181818;stroke-width:0.5;" width="102" x="1044" y="1262.8867"/><text fill="#000000" font-family="sans-serif" font-size="14" lengthAdjust="spacing" textLength="88" x="1051" y="1283.4219">MinIO-Client</text><rect fill="#E2E2F0" height="30.4883" rx="2.5" ry="2.5" style="stroke:#181818;stroke-width:0.5;" width="98" x="1257" y="42.4883"/><text fill="#000000" font-family="sans-serif" font-size="14" lengthAdjust="spacing" textLength="84" x="1264" y="63.0234">MinIO-Node</text><rect fill="#E2E2F0" height="30.4883" rx="2.5" ry="2.5" style="stroke:#181818;stroke-width:0.5;" width="98" x="1257" y="1262.8867"/><text fill="#000000" font-family="sans-serif" font-size="14" lengthAdjust="spacing" textLength="84" x="1264" y="1283.4219">MinIO-Node</text><rect fill="#E2E2F0" height="30.4883" rx="2.5" ry="2.5" style="stroke:#181818;stroke-width:0.5;" width="126" x="1365" y="42.4883"/><text fill="#000000" font-family="sans-serif" font-size="14" lengthAdjust="spacing" textLength="112" x="1372" y="63.0234">Message-Broker</text><rect fill="#E2E2F0" height="30.4883" rx="2.5" ry="2.5" style="stroke:#181818;stroke-width:0.5;" width="126" x="1365" y="1262.8867"/><text fill="#000000" font-family="sans-serif" font-size="14" lengthAdjust="spacing" textLength="112" x="1372" y="1283.4219">Message-Broker</text><rect fill="#E2E2F0" height="30.4883" rx="2.5" ry="2.5" style="stroke:#181818;stroke-width:0.5;" width="116" x="1761" y="42.4883"/><text fill="#000000" font-family="sans-serif" font-size="14" lengthAdjust="spacing" textLength="102" x="1768" y="63.0234">MetaDB-Server</text><rect fill="#E2E2F0" height="30.4883" rx="2.5" ry="2.5" style="stroke:#181818;stroke-width:0.5;" width="116" x="1761" y="1262.8867"/><text fill="#000000" font-family="sans-serif" font-size="14" lengthAdjust="spacing" textLength="102" x="1768" y="1283.4219">MetaDB-Server</text><rect fill="#E2E2F0" height="30.4883" rx="2.5" ry="2.5" style="stroke:#181818;stroke-width:0.5;" width="65" x="2076.5" y="42.4883"/><text fill="#000000" font-family="sans-serif" font-size="14" lengthAdjust="spacing" textLength="51" x="2083.5" y="63.0234">MetaDB</text><rect fill="#E2E2F0" height="30.4883" rx="2.5" ry="2.5" style="stroke:#181818;stroke-width:0.5;" width="65" x="2076.5" y="1262.8867"/><text fill="#000000" font-family="sans-serif" font-size="14" lengthAdjust="spacing" textLength="51" x="2083.5" y="1283.4219">MetaDB</text><polygon fill="#181818" points="313,101.2871,323,105.2871,313,109.2871,317,105.2871" style="stroke:#181818;stroke-width:1.0;"/><line style="stroke:#181818;stroke-width:1.0;" x1="97" x2="319" y1="105.2871" y2="105.2871"/><text fill="#000000" font-family="sans-serif" font-size="13" lengthAdjust="spacing" textLength="204" x="104" y="100.5449">Datei und JWT Token an /upload</text><polygon fill="#181818" points="743,130.5977,753,134.5977,743,138.5977,747,134.5977" style="stroke:#181818;stroke-width:1.0;"/><line style="stroke:#181818;stroke-width:1.0;" x1="325" x2="749" y1="134.5977" y2="134.5977"/><text fill="#000000" font-family="sans-serif" font-size="13" lengthAdjust="spacing" textLength="241" x="332" y="129.8555">Leitet die Anfrage an den Server weiter</text><path d="M10,149.5977 L72,149.5977 L72,156.9082 L62,166.9082 L10,166.9082 L10,149.5977 " fill="#EEEEEE" style="stroke:#000000;stroke-width:1.5;"/><rect fill="none" height="1097.2891" style="stroke:#000000;stroke-width:1.5;" width="2191.5" x="10" y="149.5977"/><text fill="#000000" font-family="sans-serif" font-size="13" font-weight="bold" lengthAdjust="spacing" textLength="17" x="25" y="163.166">alt</text><text fill="#000000" font-family="sans-serif" font-size="11" font-weight="bold" lengthAdjust="spacing" textLength="151" x="87" y="162.2324">[Dateigr&#246;&#223;e kleiner 10 MB]</text><path d="M20,173.9082 L82,173.9082 L82,181.2188 L72,191.2188 L20,191.2188 L20,173.9082 " fill="#EEEEEE" style="stroke:#000000;stroke-width:1.5;"/><rect fill="none" height="1021.7129" style="stroke:#000000;stroke-width:1.5;" width="2171.5" x="20" y="173.9082"/><text fill="#000000" font-family="sans-serif" font-size="13" font-weight="bold" lengthAdjust="spacing" textLength="17" x="35" y="187.4766">alt</text><text fill="#000000" font-family="sans-serif" font-size="11" font-weight="bold" lengthAdjust="spacing" textLength="130" x="97" y="186.543">[Dateidaten vorhanden]</text><path d="M30,198.2188 L92,198.2188 L92,205.5293 L82,215.5293 L30,215.5293 L30,198.2188 " fill="#EEEEEE" style="stroke:#000000;stroke-width:1.5;"/><rect fill="none" height="946.1367" style="stroke:#000000;stroke-width:1.5;" width="2151.5" x="30" y="198.2188"/><text fill="#000000" font-family="sans-serif" font-size="13" font-weight="bold" lengthAdjust="spacing" textLength="17" x="45" y="211.7871">alt</text><text fill="#000000" font-family="sans-serif" font-size="11" font-weight="bold" lengthAdjust="spacing" textLength="104" x="107" y="210.8535">[Dateiname g&#252;ltig]</text><line style="stroke:#181818;stroke-width:1.0;" x1="755" x2="797" y1="236.8398" y2="236.8398"/><line style="stroke:#181818;stroke-width:1.0;" x1="797" x2="797" y1="236.8398" y2="249.8398"/><line style="stroke:#181818;stroke-width:1.0;" x1="756" x2="797" y1="249.8398" y2="249.8398"/><polygon fill="#181818" points="766,245.8398,756,249.8398,766,253.8398,762,249.8398" style="stroke:#181818;stroke-width:1.0;"/><text fill="#000000" font-family="sans-serif" font-size="13" lengthAdjust="spacing" textLength="180" x="762" y="232.0977">JWT Token Authentifizierung</text><path d="M40,264.8398 L102,264.8398 L102,272.1504 L92,282.1504 L40,282.1504 L40,264.8398 " fill="#EEEEEE" style="stroke:#000000;stroke-width:1.5;"/><rect fill="none" height="828.25" style="stroke:#000000;stroke-width:1.5;" width="2131.5" x="40" y="264.8398"/><text fill="#000000" font-family="sans-serif" font-size="13" font-weight="bold" lengthAdjust="spacing" textLength="17" x="55" y="278.4082">alt</text><text fill="#000000" font-family="sans-serif" font-size="11" font-weight="bold" lengthAdjust="spacing" textLength="172" x="117" y="277.4746">[Authentifizierung erfolgreich]</text><path d="M50,289.1504 L112,289.1504 L112,296.4609 L102,306.4609 L50,306.4609 L50,289.1504 " fill="#EEEEEE" style="stroke:#000000;stroke-width:1.5;"/><rect fill="none" height="752.6738" style="stroke:#000000;stroke-width:1.5;" width="2111.5" x="50" y="289.1504"/><text fill="#000000" font-family="sans-serif" font-size="13" font-weight="bold" lengthAdjust="spacing" textLength="17" x="65" y="302.7188">alt</text><text fill="#000000" font-family="sans-serif" font-size="11" font-weight="bold" lengthAdjust="spacing" textLength="318" x="127" y="301.7852">[MinIO-Server gefunden und Dateiname nicht dupliziert]</text><polygon fill="#181818" points="336,323.7715,326,327.7715,336,331.7715,332,327.7715" style="stroke:#181818;stroke-width:1.0;"/><line style="stroke:#181818;stroke-width:1.0;" x1="330" x2="754" y1="327.7715" y2="327.7715"/><text fill="#000000" font-family="sans-serif" font-size="13" lengthAdjust="spacing" textLength="406" x="342" y="323.0293">Aufruf /minIOServerForUpload f&#252;r den MinIO-Server zum Upload</text><polygon fill="#181818" points="1807,353.082,1817,357.082,1807,361.082,1811,357.082" style="stroke:#181818;stroke-width:1.0;"/><line style="stroke:#181818;stroke-width:1.0;" x1="325" x2="1813" y1="357.082" y2="357.082"/><text fill="#000000" font-family="sans-serif" font-size="13" lengthAdjust="spacing" textLength="366" x="332" y="352.3398">Weiterleitung an DB-Server zur Abfrage des MinIO-Servers</text><polygon fill="#181818" points="2097,382.3926,2107,386.3926,2097,390.3926,2101,386.3926" style="stroke:#181818;stroke-width:1.0;"/><line style="stroke:#181818;stroke-width:1.0;" x1="1819" x2="2103" y1="386.3926" y2="386.3926"/><text fill="#000000" font-family="sans-serif" font-size="13" lengthAdjust="spacing" textLength="266" x="1826" y="381.6504">Abfrage des MinIO-Servers f&#252;r den Upload</text><polygon fill="#181818" points="1830,411.7031,1820,415.7031,1830,419.7031,1826,415.7031" style="stroke:#181818;stroke-width:1.0;"/><line style="stroke:#181818;stroke-width:1.0;" x1="1824" x2="2108" y1="415.7031" y2="415.7031"/><text fill="#000000" font-family="sans-serif" font-size="13" lengthAdjust="spacing" textLength="181" x="1836" y="410.9609">R&#252;ckgabe des MinIO-Servers</text><polygon fill="#181818" points="336,441.0137,326,445.0137,336,449.0137,332,445.0137" style="stroke:#181818;stroke-width:1.0;"/><line style="stroke:#181818;stroke-width:1.0;" x1="330" x2="1818" y1="445.0137" y2="445.0137"/><text fill="#000000" font-family="sans-serif" font-size="13" lengthAdjust="spacing" textLength="181" x="342" y="440.2715">R&#252;ckgabe des MinIO-Servers</text><polygon fill="#181818" points="743,470.3242,753,474.3242,743,478.3242,747,474.3242" style="stroke:#181818;stroke-width:1.0;"/><line style="stroke:#181818;stroke-width:1.0;" x1="325" x2="749" y1="474.3242" y2="474.3242"/><text fill="#000000" font-family="sans-serif" font-size="13" lengthAdjust="spacing" textLength="181" x="332" y="469.582">R&#252;ckgabe des MinIO-Servers</text><polygon fill="#181818" points="336,499.6348,326,503.6348,336,507.6348,332,503.6348" style="stroke:#181818;stroke-width:1.0;"/><line style="stroke:#181818;stroke-width:1.0;" x1="330" x2="754" y1="503.6348" y2="503.6348"/><text fill="#000000" font-family="sans-serif" font-size="13" lengthAdjust="spacing" textLength="357" x="342" y="498.8926">Pr&#252;fen auf Duplikate (Aufruf /getFilenamesForUsername)</text><polygon fill="#181818" points="1807,528.9453,1817,532.9453,1807,536.9453,1811,532.9453" style="stroke:#181818;stroke-width:1.0;"/><line style="stroke:#181818;stroke-width:1.0;" x1="325" x2="1813" y1="532.9453" y2="532.9453"/><text fill="#000000" font-family="sans-serif" font-size="13" lengthAdjust="spacing" textLength="349" x="332" y="528.2031">Weiterleitung an DB-Server zur Abfrage der Dateinamen</text><polygon fill="#181818" points="2097,558.2559,2107,562.2559,2097,566.2559,2101,562.2559" style="stroke:#181818;stroke-width:1.0;"/><line style="stroke:#181818;stroke-width:1.0;" x1="1819" x2="2103" y1="562.2559" y2="562.2559"/><text fill="#000000" font-family="sans-serif" font-size="13" lengthAdjust="spacing" textLength="259" x="1826" y="557.5137">Abfrage der Dateinamen f&#252;r den Benutzer</text><polygon fill="#181818" points="1830,587.5664,1820,591.5664,1830,595.5664,1826,591.5664" style="stroke:#181818;stroke-width:1.0;"/><line style="stroke:#181818;stroke-width:1.0;" x1="1824" x2="2108" y1="591.5664" y2="591.5664"/><text fill="#000000" font-family="sans-serif" font-size="13" lengthAdjust="spacing" textLength="164" x="1836" y="586.8242">R&#252;ckgabe der Dateinamen</text><polygon fill="#181818" points="336,616.877,326,620.877,336,624.877,332,620.877" style="stroke:#181818;stroke-width:1.0;"/><line style="stroke:#181818;stroke-width:1.0;" x1="330" x2="1818" y1="620.877" y2="620.877"/><text fill="#000000" font-family="sans-serif" font-size="13" lengthAdjust="spacing" textLength="164" x="342" y="616.1348">R&#252;ckgabe der Dateinamen</text><polygon fill="#181818" points="743,646.1875,753,650.1875,743,654.1875,747,650.1875" style="stroke:#181818;stroke-width:1.0;"/><line style="stroke:#181818;stroke-width:1.0;" x1="325" x2="749" y1="650.1875" y2="650.1875"/><text fill="#000000" font-family="sans-serif" font-size="13" lengthAdjust="spacing" textLength="164" x="332" y="645.4453">R&#252;ckgabe der Dateinamen</text><path d="M60,665.1875 L122,665.1875 L122,672.498 L112,682.498 L60,682.498 L60,665.1875 " fill="#EEEEEE" style="stroke:#000000;stroke-width:1.5;"/><rect fill="none" height="325.3711" style="stroke:#000000;stroke-width:1.5;" width="2091.5" x="60" y="665.1875"/><text fill="#000000" font-family="sans-serif" font-size="13" font-weight="bold" lengthAdjust="spacing" textLength="17" x="75" y="678.7559">alt</text><text fill="#000000" font-family="sans-serif" font-size="11" font-weight="bold" lengthAdjust="spacing" textLength="127" x="137" y="677.8223">[Datei nicht dupliziert]</text><polygon fill="#181818" points="1083,699.8086,1093,703.8086,1083,707.8086,1087,703.8086" style="stroke:#181818;stroke-width:1.0;"/><line style="stroke:#181818;stroke-width:1.0;" x1="755" x2="1089" y1="703.8086" y2="703.8086"/><text fill="#000000" font-family="sans-serif" font-size="13" lengthAdjust="spacing" textLength="316" x="762" y="699.0664">Aufruf von MinIO-Client zum Hochladen der Datei</text><polygon fill="#181818" points="1294,729.1191,1304,733.1191,1294,737.1191,1298,733.1191" style="stroke:#181818;stroke-width:1.0;"/><line style="stroke:#181818;stroke-width:1.0;" x1="1095" x2="1300" y1="733.1191" y2="733.1191"/><text fill="#000000" font-family="sans-serif" font-size="13" lengthAdjust="spacing" textLength="148" x="1102" y="728.377">Datei wird hochgeladen</text><polygon fill="#181818" points="1106,758.4297,1096,762.4297,1106,766.4297,1102,762.4297" style="stroke:#181818;stroke-width:1.0;"/><line style="stroke:#181818;stroke-width:1.0;" x1="1100" x2="1305" y1="762.4297" y2="762.4297"/><text fill="#000000" font-family="sans-serif" font-size="13" lengthAdjust="spacing" textLength="187" x="1112" y="757.6875">Etag der hochgeladenen Datei</text><polygon fill="#181818" points="766,787.7402,756,791.7402,766,795.7402,762,791.7402" style="stroke:#181818;stroke-width:1.0;"/><line style="stroke:#181818;stroke-width:1.0;" x1="760" x2="1094" y1="791.7402" y2="791.7402"/><text fill="#000000" font-family="sans-serif" font-size="13" lengthAdjust="spacing" textLength="125" x="772" y="786.998">R&#252;ckgabe des Etags</text><polygon fill="#181818" points="1416,817.0508,1426,821.0508,1416,825.0508,1420,821.0508" style="stroke:#181818;stroke-width:1.0;"/><line style="stroke:#181818;stroke-width:1.0;" x1="755" x2="1422" y1="821.0508" y2="821.0508"/><text fill="#000000" font-family="sans-serif" font-size="13" lengthAdjust="spacing" textLength="368" x="762" y="816.3086">Metadaten in der Datenbank speichern (Aufruf /addQueue)</text><polygon fill="#181818" points="1807,846.3613,1817,850.3613,1807,854.3613,1811,850.3613" style="stroke:#181818;stroke-width:1.0;"/><line style="stroke:#181818;stroke-width:1.0;" x1="1428" x2="1813" y1="850.3613" y2="850.3613"/><text fill="#000000" font-family="sans-serif" font-size="13" lengthAdjust="spacing" textLength="367" x="1435" y="845.6191">Weiterleitung an DB-Server zur Speicherung der Metadaten</text><polygon fill="#181818" points="2097,875.6719,2107,879.6719,2097,883.6719,2101,879.6719" style="stroke:#181818;stroke-width:1.0;"/><line style="stroke:#181818;stroke-width:1.0;" x1="1819" x2="2103" y1="879.6719" y2="879.6719"/><text fill="#000000" font-family="sans-serif" font-size="13" lengthAdjust="spacing" textLength="195" x="1826" y="874.9297">Speichern der Datei-Metadaten</text><polygon fill="#181818" points="336,904.9824,326,908.9824,336,912.9824,332,908.9824" style="stroke:#181818;stroke-width:1.0;"/><line style="stroke:#181818;stroke-width:1.0;" x1="330" x2="754" y1="908.9824" y2="908.9824"/><text fill="#000000" font-family="sans-serif" font-size="13" lengthAdjust="spacing" textLength="242" x="342" y="904.2402">Best&#228;tigung des erfolgreichen Uploads</text><polygon fill="#181818" points="108,934.293,98,938.293,108,942.293,104,938.293" style="stroke:#181818;stroke-width:1.0;"/><line style="stroke:#181818;stroke-width:1.0;" x1="102" x2="324" y1="938.293" y2="938.293"/><text fill="#000000" font-family="sans-serif" font-size="13" lengthAdjust="spacing" textLength="203" x="114" y="933.5508">Antwort mit Metadaten und Etag</text><line style="stroke:#000000;stroke-width:1.0;stroke-dasharray:2.0,2.0;" x1="60" x2="2151.5" y1="947.293" y2="947.293"/><text fill="#000000" font-family="sans-serif" font-size="11" font-weight="bold" lengthAdjust="spacing" textLength="128" x="65" y="957.9277">[Datei ist ein Duplikat]</text><polygon fill="#181818" points="108,978.5586,98,982.5586,108,986.5586,104,982.5586" style="stroke:#181818;stroke-width:1.0;"/><line style="stroke:#181818;stroke-width:1.0;" x1="102" x2="754" y1="982.5586" y2="982.5586"/><text fill="#000000" font-family="sans-serif" font-size="13" lengthAdjust="spacing" textLength="203" x="114" y="977.8164">Fehler: "Filename already exists"</text><line style="stroke:#000000;stroke-width:1.0;stroke-dasharray:2.0,2.0;" x1="50" x2="2161.5" y1="998.5586" y2="998.5586"/><text fill="#000000" font-family="sans-serif" font-size="11" font-weight="bold" lengthAdjust="spacing" textLength="322" x="55" y="1009.1934">[MinIO-Server nicht gefunden oder Dateiname dupliziert]</text><polygon fill="#181818" points="108,1029.8242,98,1033.8242,108,1037.8242,104,1033.8242" style="stroke:#181818;stroke-width:1.0;"/><line style="stroke:#181818;stroke-width:1.0;" x1="102" x2="754" y1="1033.8242" y2="1033.8242"/><text fill="#000000" font-family="sans-serif" font-size="13" lengthAdjust="spacing" textLength="359" x="114" y="1029.082">Fehler: "Failed to find MinIO server or duplicate filename"</text><line style="stroke:#000000;stroke-width:1.0;stroke-dasharray:2.0,2.0;" x1="40" x2="2171.5" y1="1049.8242" y2="1049.8242"/><text fill="#000000" font-family="sans-serif" font-size="11" font-weight="bold" lengthAdjust="spacing" textLength="194" x="45" y="1060.459">[Authentifizierung fehlgeschlagen]</text><polygon fill="#181818" points="108,1081.0898,98,1085.0898,108,1089.0898,104,1085.0898" style="stroke:#181818;stroke-width:1.0;"/><line style="stroke:#181818;stroke-width:1.0;" x1="102" x2="754" y1="1085.0898" y2="1085.0898"/><text fill="#000000" font-family="sans-serif" font-size="13" lengthAdjust="spacing" textLength="218" x="114" y="1080.3477">Fehler: "User authentication failed"</text><line style="stroke:#000000;stroke-width:1.0;stroke-dasharray:2.0,2.0;" x1="30" x2="2181.5" y1="1101.0898" y2="1101.0898"/><text fill="#000000" font-family="sans-serif" font-size="11" font-weight="bold" lengthAdjust="spacing" textLength="118" x="35" y="1111.7246">[Dateiname ung&#252;ltig]</text><polygon fill="#181818" points="108,1132.3555,98,1136.3555,108,1140.3555,104,1136.3555" style="stroke:#181818;stroke-width:1.0;"/><line style="stroke:#181818;stroke-width:1.0;" x1="102" x2="754" y1="1136.3555" y2="1136.3555"/><text fill="#000000" font-family="sans-serif" font-size="13" lengthAdjust="spacing" textLength="285" x="114" y="1131.6133">Fehler: "Filename contains invalid characters"</text><line style="stroke:#000000;stroke-width:1.0;stroke-dasharray:2.0,2.0;" x1="20" x2="2191.5" y1="1152.3555" y2="1152.3555"/><text fill="#000000" font-family="sans-serif" font-size="11" font-weight="bold" lengthAdjust="spacing" textLength="106" x="25" y="1162.9902">[Dateidaten fehlen]</text><polygon fill="#181818" points="108,1183.6211,98,1187.6211,108,1191.6211,104,1187.6211" style="stroke:#181818;stroke-width:1.0;"/><line style="stroke:#181818;stroke-width:1.0;" x1="102" x2="754" y1="1187.6211" y2="1187.6211"/><text fill="#000000" font-family="sans-serif" font-size="13" lengthAdjust="spacing" textLength="267" x="114" y="1182.8789">Fehler: "File data is missing or malformed"</text><line style="stroke:#000000;stroke-width:1.0;stroke-dasharray:2.0,2.0;" x1="10" x2="2201.5" y1="1203.6211" y2="1203.6211"/><text fill="#000000" font-family="sans-serif" font-size="11" font-weight="bold" lengthAdjust="spacing" textLength="149" x="15" y="1214.2559">[Dateigr&#246;&#223;e gr&#246;&#223;er 10 MB]</text><polygon fill="#181818" points="108,1234.8867,98,1238.8867,108,1242.8867,104,1238.8867" style="stroke:#181818;stroke-width:1.0;"/><line style="stroke:#181818;stroke-width:1.0;" x1="102" x2="754" y1="1238.8867" y2="1238.8867"/><text fill="#000000" font-family="sans-serif" font-size="13" lengthAdjust="spacing" textLength="204" x="114" y="1234.1445">Fehler: "File size exceeds 10 MB"</text><!--SRC=[hLRBRjim4BphAnO-jGSZxTM70dPTeosQz94KFJFIIYOiKmP9EOb_ffT-Gq- - -SUwI-ffIOuTL8T41fSpmvrThgoqAS9SM9ImpC9bAY9KGR0HsifGReIoC7gVIbHs1CA0VsqltoHIFRfLzzPUN0XZPVmqlaMzHUsY_6ixx5ggJr_73QARBCBXG5vrOUud_pgAGcD4WkEPpbO5gtyz3hDYFcjgcyzwILsS9tIlGU2bmlYTF_IaI66k8lZywmxkY4o1K72LRz9CH86Bud2FFu4lA2rQY2J2LCMQr78u9R-8W0SEq44WKkl14ttuU_YDi4fHAWfu-mQkPm7GKuL4z4V1DjDBeTX7A9ugG8arGdBOfrOcrIe_1Mb3O7sCQMwNT5WPovr4dQlsJiRkH03gE4iJZJ9S1gtmSeitig1DCCvPiCjVBLJHRaeHfT3XsWvGMtdXn3IFTHx3rPeP_EeYqp-T3n0VzjfbkSM_ozVW0tefAlFAyfZ0B-SEEM7vjEHSLKS4fc5wxosDqBIOJ2z-2SiKli0cmmZr4KuezYXjoJyE-t2LYFkNg2fIUob4f-fF0PpdxZTzsCVSMsJnd2jZHUK2hqhJ4xGBcIANZs7N3Mf-V_tVVTLrdQeNcDhSNZiwGvNR7NNzIpozI56FeS_kF-bcQtVlzkeIEg-lZzolva7LuDkixEBYCkOk_bZEi5hI87gDwJmgHqbvbpz87RcPcA2VYaCurSvZeH-iI9oE1WefkqHLV-Cmy433jDFcfzx4rOuV3hBEZBeNQWLcmvSqjKdTH2AAlkUO3tGDFnxtejQvBNXuaHLKaWP9-Zhejb9R-JkkaSuf95_uCpJsy8Uce9TZcWEhkbhDi4bbA_ZIevfKzY7J5jRIDfBDuuozwiN1r9HVNj9OeDwfBhGppb4IBt2PSlP7vRL7VQPHH4-0ZmHhHltSgZitd9xMMFHzMWtdhDNbvy_bhbH1MYEm6SIICkGumVZuJ7lWaA_rk3XJzn371t3YkvyXCL4cQFXEI7egxOH6dXmqP3mWYP5qsyHETrjCKqZjg4iG2JZvfJLiOPWfAwGorArRaSe8mgNG8gJsQlXPCjUilkZup8spFiC7j4bG0LBb6YCfPMJ0MgHnfjVbKPce9Ya_Gul_pU_GvwYCt26LPOWO6Rzj533uFm00]--></g></svg>