<?xml version="1.0" encoding="us-ascii" standalone="no"?><svg xmlns="http://www.w3.org/2000/svg" xmlns:xlink="http://www.w3.org/1999/xlink" contentStyleType="text/css" height="1387px" preserveAspectRatio="none" style="width:2208px;height:1387px;background:#FFFFFF;" version="1.1" viewBox="0 0 2208 1387" width="2208px" zoomAndPan="magnify"><defs/><g><text fill="#000000" font-family="sans-serif" font-size="14" font-weight="bold" lengthAdjust="spacing" textLength="116" x="1047.25" y="28.5352">Datei hochladen</text><rect fill="none" height="1185.2207" style="stroke:#000000;stroke-width:1.5;" width="2191.5" x="10" y="149.5977"/><rect fill="none" height="1109.6445" style="stroke:#000000;stroke-width:1.5;" width="2171.5" x="20" y="173.9082"/><rect fill="none" height="1034.0684" style="stroke:#000000;stroke-width:1.5;" width="2151.5" x="30" y="198.2188"/><rect fill="none" height="916.1816" style="stroke:#000000;stroke-width:1.5;" width="2131.5" x="40" y="264.8398"/><rect fill="none" height="840.6055" style="stroke:#000000;stroke-width:1.5;" width="2111.5" x="50" y="289.1504"/><rect fill="none" height="413.3027" style="stroke:#000000;stroke-width:1.5;" width="2091.5" x="60" y="665.1875"/><line style="stroke:#181818;stroke-width:0.5;stroke-dasharray:5.0,5.0;" x1="97" x2="97" y1="73.9766" y2="1351.8184"/><line style="stroke:#181818;stroke-width:0.5;stroke-dasharray:5.0,5.0;" x1="324.5" x2="324.5" y1="73.9766" y2="1351.8184"/><line style="stroke:#181818;stroke-width:0.5;stroke-dasharray:5.0,5.0;" x1="754.5" x2="754.5" y1="73.9766" y2="1351.8184"/><line style="stroke:#181818;stroke-width:0.5;stroke-dasharray:5.0,5.0;" x1="1095" x2="1095" y1="73.9766" y2="1351.8184"/><line style="stroke:#181818;stroke-width:0.5;stroke-dasharray:5.0,5.0;" x1="1306" x2="1306" y1="73.9766" y2="1351.8184"/><line style="stroke:#181818;stroke-width:0.5;stroke-dasharray:5.0,5.0;" x1="1428" x2="1428" y1="73.9766" y2="1351.8184"/><line style="stroke:#181818;stroke-width:0.5;stroke-dasharray:5.0,5.0;" x1="1819" x2="1819" y1="73.9766" y2="1351.8184"/><line style="stroke:#181818;stroke-width:0.5;stroke-dasharray:5.0,5.0;" x1="2108.5" x2="2108.5" y1="73.9766" y2="1351.8184"/><rect fill="#E2E2F0" height="30.4883" rx="2.5" ry="2.5" style="stroke:#181818;stroke-width:0.5;" width="54" x="70" y="42.4883"/><text fill="#000000" font-family="sans-serif" font-size="14" lengthAdjust="spacing" textLength="40" x="77" y="63.0234">Client</text><rect fill="#E2E2F0" height="30.4883" rx="2.5" ry="2.5" style="stroke:#181818;stroke-width:0.5;" width="54" x="70" y="1350.8184"/><text fill="#000000" font-family="sans-serif" font-size="14" lengthAdjust="spacing" textLength="40" x="77" y="1371.3535">Client</text><rect fill="#E2E2F0" height="30.4883" rx="2.5" ry="2.5" style="stroke:#181818;stroke-width:0.5;" width="55" x="297.5" y="42.4883"/><text fill="#000000" font-family="sans-serif" font-size="14" lengthAdjust="spacing" textLength="41" x="304.5" y="63.0234">Nginx</text><rect fill="#E2E2F0" height="30.4883" rx="2.5" ry="2.5" style="stroke:#181818;stroke-width:0.5;" width="55" x="297.5" y="1350.8184"/><text fill="#000000" font-family="sans-serif" font-size="14" lengthAdjust="spacing" textLength="41" x="304.5" y="1371.3535">Nginx</text><rect fill="#E2E2F0" height="30.4883" rx="2.5" ry="2.5" style="stroke:#181818;stroke-width:0.5;" width="109" x="700.5" y="42.4883"/><text fill="#000000" font-family="sans-serif" font-size="14" lengthAdjust="spacing" textLength="95" x="707.5" y="63.0234">Fastify-Server</text><rect fill="#E2E2F0" height="30.4883" rx="2.5" ry="2.5" style="stroke:#181818;stroke-width:0.5;" width="109" x="700.5" y="1350.8184"/><text fill="#000000" font-family="sans-serif" font-size="14" lengthAdjust="spacing" textLength="95" x="707.5" y="1371.3535">Fastify-Server</text><rect fill="#E2E2F0" height="30.4883" rx="2.5" ry="2.5" style="stroke:#181818;stroke-width:0.5;" width="102" x="1044" y="42.4883"/><text fill="#000000" font-family="sans-serif" font-size="14" lengthAdjust="spacing" textLength="88" x="1051" y="63.0234">MinIO-Client</text><rect fill="#E2E2F0" height="30.4883" rx="2.5" ry="2.5" style="stroke:#181818;stroke-width:0.5;" width="102" x="1044" y="1350.8184"/><text fill="#000000" font-family="sans-serif" font-size="14" lengthAdjust="spacing" textLength="88" x="1051" y="1371.3535">MinIO-Client</text><rect fill="#E2E2F0" height="30.4883" rx="2.5" ry="2.5" style="stroke:#181818;stroke-width:0.5;" width="98" x="1257" y="42.4883"/><text fill="#000000" font-family="sans-serif" font-size="14" lengthAdjust="spacing" textLength="84" x="1264" y="63.0234">MinIO-Node</text><rect fill="#E2E2F0" height="30.4883" rx="2.5" ry="2.5" style="stroke:#181818;stroke-width:0.5;" width="98" x="1257" y="1350.8184"/><text fill="#000000" font-family="sans-serif" font-size="14" lengthAdjust="spacing" textLength="84" x="1264" y="1371.3535">MinIO-Node</text><rect fill="#E2E2F0" height="30.4883" rx="2.5" ry="2.5" style="stroke:#181818;stroke-width:0.5;" width="126" x="1365" y="42.4883"/><text fill="#000000" font-family="sans-serif" font-size="14" lengthAdjust="spacing" textLength="112" x="1372" y="63.0234">Message-Broker</text><rect fill="#E2E2F0" height="30.4883" rx="2.5" ry="2.5" style="stroke:#181818;stroke-width:0.5;" width="126" x="1365" y="1350.8184"/><text fill="#000000" font-family="sans-serif" font-size="14" lengthAdjust="spacing" textLength="112" x="1372" y="1371.3535">Message-Broker</text><rect fill="#E2E2F0" height="30.4883" rx="2.5" ry="2.5" style="stroke:#181818;stroke-width:0.5;" width="116" x="1761" y="42.4883"/><text fill="#000000" font-family="sans-serif" font-size="14" lengthAdjust="spacing" textLength="102" x="1768" y="63.0234">MetaDB-Server</text><rect fill="#E2E2F0" height="30.4883" rx="2.5" ry="2.5" style="stroke:#181818;stroke-width:0.5;" width="116" x="1761" y="1350.8184"/><text fill="#000000" font-family="sans-serif" font-size="14" lengthAdjust="spacing" textLength="102" x="1768" y="1371.3535">MetaDB-Server</text><rect fill="#E2E2F0" height="30.4883" rx="2.5" ry="2.5" style="stroke:#181818;stroke-width:0.5;" width="65" x="2076.5" y="42.4883"/><text fill="#000000" font-family="sans-serif" font-size="14" lengthAdjust="spacing" textLength="51" x="2083.5" y="63.0234">MetaDB</text><rect fill="#E2E2F0" height="30.4883" rx="2.5" ry="2.5" style="stroke:#181818;stroke-width:0.5;" width="65" x="2076.5" y="1350.8184"/><text fill="#000000" font-family="sans-serif" font-size="14" lengthAdjust="spacing" textLength="51" x="2083.5" y="1371.3535">MetaDB</text><polygon fill="#181818" points="313,101.2871,323,105.2871,313,109.2871,317,105.2871" style="stroke:#181818;stroke-width:1.0;"/><line style="stroke:#181818;stroke-width:1.0;" x1="97" x2="319" y1="105.2871" y2="105.2871"/><text fill="#000000" font-family="sans-serif" font-size="13" lengthAdjust="spacing" textLength="204" x="104" y="100.5449">Datei und JWT Token an /upload</text><polygon fill="#181818" points="743,130.5977,753,134.5977,743,138.5977,747,134.5977" style="stroke:#181818;stroke-width:1.0;"/><line style="stroke:#181818;stroke-width:1.0;" x1="325" x2="749" y1="134.5977" y2="134.5977"/><text fill="#000000" font-family="sans-serif" font-size="13" lengthAdjust="spacing" textLength="241" x="332" y="129.8555">Leitet die Anfrage an den Server weiter</text><path d="M10,149.5977 L72,149.5977 L72,156.9082 L62,166.9082 L10,166.9082 L10,149.5977 " fill="#EEEEEE" style="stroke:#000000;stroke-width:1.5;"/><rect fill="none" height="1185.2207" style="stroke:#000000;stroke-width:1.5;" width="2191.5" x="10" y="149.5977"/><text fill="#000000" font-family="sans-serif" font-size="13" font-weight="bold" lengthAdjust="spacing" textLength="17" x="25" y="163.166">alt</text><text fill="#000000" font-family="sans-serif" font-size="11" font-weight="bold" lengthAdjust="spacing" textLength="151" x="87" y="162.2324">[Dateigr&#246;&#223;e kleiner 10 MB]</text><path d="M20,173.9082 L82,173.9082 L82,181.2188 L72,191.2188 L20,191.2188 L20,173.9082 " fill="#EEEEEE" style="stroke:#000000;stroke-width:1.5;"/><rect fill="none" height="1109.6445" style="stroke:#000000;stroke-width:1.5;" width="2171.5" x="20" y="173.9082"/><text fill="#000000" font-family="sans-serif" font-size="13" font-weight="bold" lengthAdjust="spacing" textLength="17" x="35" y="187.4766">alt</text><text fill="#000000" font-family="sans-serif" font-size="11" font-weight="bold" lengthAdjust="spacing" textLength="130" x="97" y="186.543">[Dateidaten vorhanden]</text><path d="M30,198.2188 L92,198.2188 L92,205.5293 L82,215.5293 L30,215.5293 L30,198.2188 " fill="#EEEEEE" style="stroke:#000000;stroke-width:1.5;"/><rect fill="none" height="1034.0684" style="stroke:#000000;stroke-width:1.5;" width="2151.5" x="30" y="198.2188"/><text fill="#000000" font-family="sans-serif" font-size="13" font-weight="bold" lengthAdjust="spacing" textLength="17" x="45" y="211.7871">alt</text><text fill="#000000" font-family="sans-serif" font-size="11" font-weight="bold" lengthAdjust="spacing" textLength="104" x="107" y="210.8535">[Dateiname g&#252;ltig]</text><line style="stroke:#181818;stroke-width:1.0;" x1="755" x2="797" y1="236.8398" y2="236.8398"/><line style="stroke:#181818;stroke-width:1.0;" x1="797" x2="797" y1="236.8398" y2="249.8398"/><line style="stroke:#181818;stroke-width:1.0;" x1="756" x2="797" y1="249.8398" y2="249.8398"/><polygon fill="#181818" points="766,245.8398,756,249.8398,766,253.8398,762,249.8398" style="stroke:#181818;stroke-width:1.0;"/><text fill="#000000" font-family="sans-serif" font-size="13" lengthAdjust="spacing" textLength="180" x="762" y="232.0977">JWT Token Authentifizierung</text><path d="M40,264.8398 L102,264.8398 L102,272.1504 L92,282.1504 L40,282.1504 L40,264.8398 " fill="#EEEEEE" style="stroke:#000000;stroke-width:1.5;"/><rect fill="none" height="916.1816" style="stroke:#000000;stroke-width:1.5;" width="2131.5" x="40" y="264.8398"/><text fill="#000000" font-family="sans-serif" font-size="13" font-weight="bold" lengthAdjust="spacing" textLength="17" x="55" y="278.4082">alt</text><text fill="#000000" font-family="sans-serif" font-size="11" font-weight="bold" lengthAdjust="spacing" textLength="172" x="117" y="277.4746">[Authentifizierung erfolgreich]</text><path d="M50,289.1504 L112,289.1504 L112,296.4609 L102,306.4609 L50,306.4609 L50,289.1504 " fill="#EEEEEE" style="stroke:#000000;stroke-width:1.5;"/><rect fill="none" height="840.6055" style="stroke:#000000;stroke-width:1.5;" width="2111.5" x="50" y="289.1504"/><text fill="#000000" font-family="sans-serif" font-size="13" font-weight="bold" lengthAdjust="spacing" textLength="17" x="65" y="302.7188">alt</text><text fill="#000000" font-family="sans-serif" font-size="11" font-weight="bold" lengthAdjust="spacing" textLength="318" x="127" y="301.7852">[MinIO-Server gefunden und Dateiname nicht dupliziert]</text><polygon fill="#181818" points="336,323.7715,326,327.7715,336,331.7715,332,327.7715" style="stroke:#181818;stroke-width:1.0;"/><line style="stroke:#181818;stroke-width:1.0;" x1="330" x2="754" y1="327.7715" y2="327.7715"/><text fill="#000000" font-family="sans-serif" font-size="13" lengthAdjust="spacing" textLength="406" x="342" y="323.0293">Aufruf /minIOServerForUpload f&#252;r den MinIO-Server zum Upload</text><polygon fill="#181818" points="1807,353.082,1817,357.082,1807,361.082,1811,357.082" style="stroke:#181818;stroke-width:1.0;"/><line style="stroke:#181818;stroke-width:1.0;" x1="325" x2="1813" y1="357.082" y2="357.082"/><text fill="#000000" font-family="sans-serif" font-size="13" lengthAdjust="spacing" textLength="366" x="332" y="352.3398">Weiterleitung an DB-Server zur Abfrage des MinIO-Servers</text><polygon fill="#181818" points="2097,382.3926,2107,386.3926,2097,390.3926,2101,386.3926" style="stroke:#181818;stroke-width:1.0;"/><line style="stroke:#181818;stroke-width:1.0;" x1="1819" x2="2103" y1="386.3926" y2="386.3926"/><text fill="#000000" font-family="sans-serif" font-size="13" lengthAdjust="spacing" textLength="266" x="1826" y="381.6504">Abfrage des MinIO-Servers f&#252;r den Upload</text><polygon fill="#181818" points="1830,411.7031,1820,415.7031,1830,419.7031,1826,415.7031" style="stroke:#181818;stroke-width:1.0;"/><line style="stroke:#181818;stroke-width:1.0;" x1="1824" x2="2108" y1="415.7031" y2="415.7031"/><text fill="#000000" font-family="sans-serif" font-size="13" lengthAdjust="spacing" textLength="181" x="1836" y="410.9609">R&#252;ckgabe des MinIO-Servers</text><polygon fill="#181818" points="336,441.0137,326,445.0137,336,449.0137,332,445.0137" style="stroke:#181818;stroke-width:1.0;"/><line style="stroke:#181818;stroke-width:1.0;" x1="330" x2="1818" y1="445.0137" y2="445.0137"/><text fill="#000000" font-family="sans-serif" font-size="13" lengthAdjust="spacing" textLength="181" x="342" y="440.2715">R&#252;ckgabe des MinIO-Servers</text><polygon fill="#181818" points="743,470.3242,753,474.3242,743,478.3242,747,474.3242" style="stroke:#181818;stroke-width:1.0;"/><line style="stroke:#181818;stroke-width:1.0;" x1="325" x2="749" y1="474.3242" y2="474.3242"/><text fill="#000000" font-family="sans-serif" font-size="13" lengthAdjust="spacing" textLength="181" x="332" y="469.582">R&#252;ckgabe des MinIO-Servers</text><polygon fill="#181818" points="336,499.6348,326,503.6348,336,507.6348,332,503.6348" style="stroke:#181818;stroke-width:1.0;"/><line style="stroke:#181818;stroke-width:1.0;" x1="330" x2="754" y1="503.6348" y2="503.6348"/><text fill="#000000" font-family="sans-serif" font-size="13" lengthAdjust="spacing" textLength="357" x="342" y="498.8926">Pr&#252;fen auf Duplikate (Aufruf /getFilenamesForUsername)</text><polygon fill="#181818" points="1807,528.9453,1817,532.9453,1807,536.9453,1811,532.9453" style="stroke:#181818;stroke-width:1.0;"/><line style="stroke:#181818;stroke-width:1.0;" x1="325" x2="1813" y1="532.9453" y2="532.9453"/><text fill="#000000" font-family="sans-serif" font-size="13" lengthAdjust="spacing" textLength="349" x="332" y="528.2031">Weiterleitung an DB-Server zur Abfrage der Dateinamen</text><polygon fill="#181818" points="2097,558.2559,2107,562.2559,2097,566.2559,2101,562.2559" style="stroke:#181818;stroke-width:1.0;"/><line style="stroke:#181818;stroke-width:1.0;" x1="1819" x2="2103" y1="562.2559" y2="562.2559"/><text fill="#000000" font-family="sans-serif" font-size="13" lengthAdjust="spacing" textLength="259" x="1826" y="557.5137">Abfrage der Dateinamen f&#252;r den Benutzer</text><polygon fill="#181818" points="1830,587.5664,1820,591.5664,1830,595.5664,1826,591.5664" style="stroke:#181818;stroke-width:1.0;"/><line style="stroke:#181818;stroke-width:1.0;" x1="1824" x2="2108" y1="591.5664" y2="591.5664"/><text fill="#000000" font-family="sans-serif" font-size="13" lengthAdjust="spacing" textLength="164" x="1836" y="586.8242">R&#252;ckgabe der Dateinamen</text><polygon fill="#181818" points="336,616.877,326,620.877,336,624.877,332,620.877" style="stroke:#181818;stroke-width:1.0;"/><line style="stroke:#181818;stroke-width:1.0;" x1="330" x2="1818" y1="620.877" y2="620.877"/><text fill="#000000" font-family="sans-serif" font-size="13" lengthAdjust="spacing" textLength="164" x="342" y="616.1348">R&#252;ckgabe der Dateinamen</text><polygon fill="#181818" points="743,646.1875,753,650.1875,743,654.1875,747,650.1875" style="stroke:#181818;stroke-width:1.0;"/><line style="stroke:#181818;stroke-width:1.0;" x1="325" x2="749" y1="650.1875" y2="650.1875"/><text fill="#000000" font-family="sans-serif" font-size="13" lengthAdjust="spacing" textLength="164" x="332" y="645.4453">R&#252;ckgabe der Dateinamen</text><path d="M60,665.1875 L122,665.1875 L122,672.498 L112,682.498 L60,682.498 L60,665.1875 " fill="#EEEEEE" style="stroke:#000000;stroke-width:1.5;"/><rect fill="none" height="413.3027" style="stroke:#000000;stroke-width:1.5;" width="2091.5" x="60" y="665.1875"/><text fill="#000000" font-family="sans-serif" font-size="13" font-weight="bold" lengthAdjust="spacing" textLength="17" x="75" y="678.7559">alt</text><text fill="#000000" font-family="sans-serif" font-size="11" font-weight="bold" lengthAdjust="spacing" textLength="127" x="137" y="677.8223">[Datei nicht dupliziert]</text><polygon fill="#181818" points="1083,699.8086,1093,703.8086,1083,707.8086,1087,703.8086" style="stroke:#181818;stroke-width:1.0;"/><line style="stroke:#181818;stroke-width:1.0;" x1="755" x2="1089" y1="703.8086" y2="703.8086"/><text fill="#000000" font-family="sans-serif" font-size="13" lengthAdjust="spacing" textLength="316" x="762" y="699.0664">Aufruf von MinIO-Client zum Hochladen der Datei</text><polygon fill="#181818" points="1294,729.1191,1304,733.1191,1294,737.1191,1298,733.1191" style="stroke:#181818;stroke-width:1.0;"/><line style="stroke:#181818;stroke-width:1.0;" x1="1095" x2="1300" y1="733.1191" y2="733.1191"/><text fill="#000000" font-family="sans-serif" font-size="13" lengthAdjust="spacing" textLength="148" x="1102" y="728.377">Datei wird hochgeladen</text><polygon fill="#181818" points="1106,758.4297,1096,762.4297,1106,766.4297,1102,762.4297" style="stroke:#181818;stroke-width:1.0;"/><line style="stroke:#181818;stroke-width:1.0;" x1="1100" x2="1305" y1="762.4297" y2="762.4297"/><text fill="#000000" font-family="sans-serif" font-size="13" lengthAdjust="spacing" textLength="187" x="1112" y="757.6875">Etag der hochgeladenen Datei</text><polygon fill="#181818" points="766,787.7402,756,791.7402,766,795.7402,762,791.7402" style="stroke:#181818;stroke-width:1.0;"/><line style="stroke:#181818;stroke-width:1.0;" x1="760" x2="1094" y1="791.7402" y2="791.7402"/><text fill="#000000" font-family="sans-serif" font-size="13" lengthAdjust="spacing" textLength="125" x="772" y="786.998">R&#252;ckgabe des Etags</text><polygon fill="#181818" points="1416,817.0508,1426,821.0508,1416,825.0508,1420,821.0508" style="stroke:#181818;stroke-width:1.0;"/><line style="stroke:#181818;stroke-width:1.0;" x1="755" x2="1422" y1="821.0508" y2="821.0508"/><text fill="#000000" font-family="sans-serif" font-size="13" lengthAdjust="spacing" textLength="368" x="762" y="816.3086">Metadaten in der Datenbank speichern (Aufruf /addQueue)</text><polygon fill="#181818" points="1807,846.3613,1817,850.3613,1807,854.3613,1811,850.3613" style="stroke:#181818;stroke-width:1.0;"/><line style="stroke:#181818;stroke-width:1.0;" x1="1428" x2="1813" y1="850.3613" y2="850.3613"/><text fill="#000000" font-family="sans-serif" font-size="13" lengthAdjust="spacing" textLength="367" x="1435" y="845.6191">Weiterleitung an DB-Server zur Speicherung der Metadaten</text><polygon fill="#181818" points="2097,875.6719,2107,879.6719,2097,883.6719,2101,879.6719" style="stroke:#181818;stroke-width:1.0;"/><line style="stroke:#181818;stroke-width:1.0;" x1="1819" x2="2103" y1="879.6719" y2="879.6719"/><text fill="#000000" font-family="sans-serif" font-size="13" lengthAdjust="spacing" textLength="195" x="1826" y="874.9297">Speichern der Datei-Metadaten</text><polygon fill="#181818" points="1830,904.9824,1820,908.9824,1830,912.9824,1826,908.9824" style="stroke:#181818;stroke-width:1.0;"/><line style="stroke:#181818;stroke-width:1.0;" x1="1824" x2="2108" y1="908.9824" y2="908.9824"/><text fill="#000000" font-family="sans-serif" font-size="13" lengthAdjust="spacing" textLength="179" x="1836" y="904.2402">Best&#228;tigung der Speicherung</text><polygon fill="#181818" points="1439,934.293,1429,938.293,1439,942.293,1435,938.293" style="stroke:#181818;stroke-width:1.0;"/><line style="stroke:#181818;stroke-width:1.0;" x1="1433" x2="1818" y1="938.293" y2="938.293"/><text fill="#000000" font-family="sans-serif" font-size="13" lengthAdjust="spacing" textLength="179" x="1445" y="933.5508">Best&#228;tigung der Speicherung</text><polygon fill="#181818" points="766,963.6035,756,967.6035,766,971.6035,762,967.6035" style="stroke:#181818;stroke-width:1.0;"/><line style="stroke:#181818;stroke-width:1.0;" x1="760" x2="1427" y1="967.6035" y2="967.6035"/><text fill="#000000" font-family="sans-serif" font-size="13" lengthAdjust="spacing" textLength="179" x="772" y="962.8613">Best&#228;tigung der Speicherung</text><polygon fill="#181818" points="336,992.9141,326,996.9141,336,1000.9141,332,996.9141" style="stroke:#181818;stroke-width:1.0;"/><line style="stroke:#181818;stroke-width:1.0;" x1="330" x2="754" y1="996.9141" y2="996.9141"/><text fill="#000000" font-family="sans-serif" font-size="13" lengthAdjust="spacing" textLength="242" x="342" y="992.1719">Best&#228;tigung des erfolgreichen Uploads</text><polygon fill="#181818" points="108,1022.2246,98,1026.2246,108,1030.2246,104,1026.2246" style="stroke:#181818;stroke-width:1.0;"/><line style="stroke:#181818;stroke-width:1.0;" x1="102" x2="324" y1="1026.2246" y2="1026.2246"/><text fill="#000000" font-family="sans-serif" font-size="13" lengthAdjust="spacing" textLength="203" x="114" y="1021.4824">Antwort mit Metadaten und Etag</text><line style="stroke:#000000;stroke-width:1.0;stroke-dasharray:2.0,2.0;" x1="60" x2="2151.5" y1="1035.2246" y2="1035.2246"/><text fill="#000000" font-family="sans-serif" font-size="11" font-weight="bold" lengthAdjust="spacing" textLength="128" x="65" y="1045.8594">[Datei ist ein Duplikat]</text><polygon fill="#181818" points="108,1066.4902,98,1070.4902,108,1074.4902,104,1070.4902" style="stroke:#181818;stroke-width:1.0;"/><line style="stroke:#181818;stroke-width:1.0;" x1="102" x2="754" y1="1070.4902" y2="1070.4902"/><text fill="#000000" font-family="sans-serif" font-size="13" lengthAdjust="spacing" textLength="203" x="114" y="1065.748">Fehler: "Filename already exists"</text><line style="stroke:#000000;stroke-width:1.0;stroke-dasharray:2.0,2.0;" x1="50" x2="2161.5" y1="1086.4902" y2="1086.4902"/><text fill="#000000" font-family="sans-serif" font-size="11" font-weight="bold" lengthAdjust="spacing" textLength="322" x="55" y="1097.125">[MinIO-Server nicht gefunden oder Dateiname dupliziert]</text><polygon fill="#181818" points="108,1117.7559,98,1121.7559,108,1125.7559,104,1121.7559" style="stroke:#181818;stroke-width:1.0;"/><line style="stroke:#181818;stroke-width:1.0;" x1="102" x2="754" y1="1121.7559" y2="1121.7559"/><text fill="#000000" font-family="sans-serif" font-size="13" lengthAdjust="spacing" textLength="359" x="114" y="1117.0137">Fehler: "Failed to find MinIO server or duplicate filename"</text><line style="stroke:#000000;stroke-width:1.0;stroke-dasharray:2.0,2.0;" x1="40" x2="2171.5" y1="1137.7559" y2="1137.7559"/><text fill="#000000" font-family="sans-serif" font-size="11" font-weight="bold" lengthAdjust="spacing" textLength="194" x="45" y="1148.3906">[Authentifizierung fehlgeschlagen]</text><polygon fill="#181818" points="108,1169.0215,98,1173.0215,108,1177.0215,104,1173.0215" style="stroke:#181818;stroke-width:1.0;"/><line style="stroke:#181818;stroke-width:1.0;" x1="102" x2="754" y1="1173.0215" y2="1173.0215"/><text fill="#000000" font-family="sans-serif" font-size="13" lengthAdjust="spacing" textLength="218" x="114" y="1168.2793">Fehler: "User authentication failed"</text><line style="stroke:#000000;stroke-width:1.0;stroke-dasharray:2.0,2.0;" x1="30" x2="2181.5" y1="1189.0215" y2="1189.0215"/><text fill="#000000" font-family="sans-serif" font-size="11" font-weight="bold" lengthAdjust="spacing" textLength="118" x="35" y="1199.6563">[Dateiname ung&#252;ltig]</text><polygon fill="#181818" points="108,1220.2871,98,1224.2871,108,1228.2871,104,1224.2871" style="stroke:#181818;stroke-width:1.0;"/><line style="stroke:#181818;stroke-width:1.0;" x1="102" x2="754" y1="1224.2871" y2="1224.2871"/><text fill="#000000" font-family="sans-serif" font-size="13" lengthAdjust="spacing" textLength="285" x="114" y="1219.5449">Fehler: "Filename contains invalid characters"</text><line style="stroke:#000000;stroke-width:1.0;stroke-dasharray:2.0,2.0;" x1="20" x2="2191.5" y1="1240.2871" y2="1240.2871"/><text fill="#000000" font-family="sans-serif" font-size="11" font-weight="bold" lengthAdjust="spacing" textLength="106" x="25" y="1250.9219">[Dateidaten fehlen]</text><polygon fill="#181818" points="108,1271.5527,98,1275.5527,108,1279.5527,104,1275.5527" style="stroke:#181818;stroke-width:1.0;"/><line style="stroke:#181818;stroke-width:1.0;" x1="102" x2="754" y1="1275.5527" y2="1275.5527"/><text fill="#000000" font-family="sans-serif" font-size="13" lengthAdjust="spacing" textLength="267" x="114" y="1270.8105">Fehler: "File data is missing or malformed"</text><line style="stroke:#000000;stroke-width:1.0;stroke-dasharray:2.0,2.0;" x1="10" x2="2201.5" y1="1291.5527" y2="1291.5527"/><text fill="#000000" font-family="sans-serif" font-size="11" font-weight="bold" lengthAdjust="spacing" textLength="149" x="15" y="1302.1875">[Dateigr&#246;&#223;e gr&#246;&#223;er 10 MB]</text><polygon fill="#181818" points="108,1322.8184,98,1326.8184,108,1330.8184,104,1326.8184" style="stroke:#181818;stroke-width:1.0;"/><line style="stroke:#181818;stroke-width:1.0;" x1="102" x2="754" y1="1326.8184" y2="1326.8184"/><text fill="#000000" font-family="sans-serif" font-size="13" lengthAdjust="spacing" textLength="204" x="114" y="1322.0762">Fehler: "File size exceeds 10 MB"</text><!--SRC=[hLR9Rjim4BthAmO-jGSZxTM70dPJeosQT4cAdXbf91EMAOEadELdUkatz9IRVwmpfAZ5bhm4rI6XmU6Rntcpq4gR8rmAYn8MHRp8HO8gYjP2MndBjL0MHkzpYSgEG1Zmo-xsTIRLWzjrg-xcN1WhqyVn3UeDQcVbbrspAwa-VHst75qN2GuRygupSp_vruuL6YCo7CzqiQoy-kMkcHMNipQtorclKsVd7Rfb57cgC7xdBpsfGbYg13x_keLRSgP0ABWertaXaiXPiRd7dy0Nb1Oj919Xgb9DRDcSWbzPm3qRw2WIkVNWcTx-tVv6MEOe5HcyVGDNimZegqqI-gDWK-Y5KAmZL5zjeCGA8Ti-vrPczIv_bTCMmUOQqz8kwB8obKyITQcw9nbxpm9GfqMUQPJn8kgOXoDUoCfjXcd9X5ty6gAAJbE8A8GEr-u1TPbNIapBL9SfNApOWz-T5_gdqm7IxRDsKUxuVofNu0rwNTJYXVIOm2-d3YbX-RQaN9r71APXUkSbJT1qF9bU_03BBdo2JOOHcYiSOEnHkfH_R9_ZPIRkNiAg2ksv47jPVmZWD7M_wUrpohL54bzoPYmfNU1L43r3EvSvSleOLjsWvlNh_wwhRl9KlK3Kzl56qHcgqZvHrRz4qxCOzGXwzFn1DJkdUu_NJUYqkjvHlvu7TO5lYb35LJFcAluOPbX3QH2zmNGQXL4IUlczr8cRYHdwgJY4Kv_S9Vh1YipnQA4GitDOzHSE0myKJ3TiVkfDNExuuI2RoAWxePPWrjoagKoQ8X99yht4Sg1g-FEuPvNEJUM7Dvb1JMdGILy5tTHiQtt7nv7wIcU6ncx_q1mCX5e4Jw8KOliYe2Q09_4vfK9yHU_0cFOahcU66Sw-KEE-fgZObBqlj8MLjAqiuZdDITYBWxa9JqffB51Jg3lr2VS8ZkUuo3akez3FgO5e5CaZu0F1cb6_RxK_41sVphpt3QX-THITzdNwWsEVgY2k2TW2KaaHSZx1UFj2U-2OvrLQtMd_4hiNSEJttrSfkSpGSBFBUXB_04SUYJGzFI2HaTH6KyUxIwPDf57K1OW877n23aiO5yeAgGoreOt8PGBnGcWHKzzewHayDrvzql6TMtSzuW_eaA04fCmrHbB8I82LoDD2hy9LsL7Z9Bolg__j1_OnLqO-8QLbZ9WOVsmKCVW_]--></g></svg>